<svg xmlns="http://www.w3.org/2000/svg" xmlns:xlink="http://www.w3.org/1999/xlink" viewBox="0 0 486 521.44"><defs><style>.a{fill:url(#a);}.b{fill:url(#b);}.c{fill:url(#c);}</style><radialGradient id="a" cx="243" cy="132.04" r="125.04" gradientUnits="userSpaceOnUse"><stop offset="0" stop-color="#f1eda6"/><stop offset="0.26" stop-color="#ded493"/><stop offset="0.8" stop-color="#ad9363"/><stop offset="1" stop-color="#9a7950"/></radialGradient><radialGradient id="b" cx="243" cy="375.45" r="180.28" xlink:href="#a"/><radialGradient id="c" cx="257.88" cy="500.18" r="160.2" xlink:href="#a"/></defs><title>new-logo-wizz</title><path class="a" d="M279.83,40.63s23.25,26.56,28.44,60.94c8.46,56-35.35,121-109.69,160.47,12.93-9.23,51.94-39.6,65-93.44C278.07,108.92,255,44,204.68,0,215.79,1.73,252,8.78,279.83,40.63Zm67,105.62c.31-10.25-1.21-30.4-18.28-54.84C334.94,159.29,289,229.15,212.8,262,292,246.84,345.33,196.88,346.87,146.25Zm12.19,60.94c1.73-6.18,2.43-14.21,0-24.37a165.83,165.83,0,0,1-12.19,16.25c-36.45,42.8-86.9,57.41-117.82,63C297.29,263.13,349.58,241,359.06,207.19ZM134.6,236.65a18.87,18.87,0,0,1,5.07-13.21,19.44,19.44,0,0,1,9.14-5.07c15.23-4.23,31.56,5,36.57,8.12a65.46,65.46,0,0,1,20.31,20.31,60.76,60.76,0,0,0,25.39-35.54A114,114,0,0,0,160,199.07l-1,7.11-10.16-4.06A55,55,0,0,1,163,194c20.88-8,40.55-.61,46.72,2a36.32,36.32,0,0,0-9.14-9.14c-20.76-14.29-57.5-5.87-64,11.17a17.09,17.09,0,0,0-1,7.11c-.47.23-9.19,4.58-10.16,14.22A17.93,17.93,0,0,0,134.6,236.65Zm33.51-13.21A44.22,44.22,0,0,1,158,258l12.18,6.09h22.35a21.61,21.61,0,0,0,4.06-12.19C196.57,240,185.26,228.19,168.11,223.44Z"/><path class="b" d="M148.28,452.62H123.13L94.73,359,66.34,452.62H41.19L0,298.27H31.43l23.85,97.34,28.18-97.34H106l28.18,97.34,24.06-97.34h31.43Zm60.69,0V298.27H239.1V452.62Zm56.79,0V428.34l65.9-103.19H268.58V298.27h98.63v23.85L301.09,425.74h66.12v26.88Zm118.79,0V428.34l65.9-103.19H387.36V298.27H486v23.85L419.88,425.74H486v26.88Z"/><path class="c" d="M59.54,484.45l0,.61v.62l0,.52,0,.62.09.52-.09,1.14-.08.62v1.14l-.09.57L59.23,492l-.09.57,0,.61-.14.52-.08.62-.09.48v.66l-.09.52-.13.57,0,.57-.18.53,0,.61-.13.57-.53,1.67-.13.52-.13.57-.13.48-.18.57-.31.57-.17.49-.31.52-.22.57-.3.48-.27.44-.39.48-.62,1-.56.61-.62.57-.44.31-.52.3-.48.36-.53.3-.39.22-1.14.4-2.24.35-.57,0-.48,0-.57-.14-.61-.08-.66-.18-.48-.22-.62-.26-.3-.35-.49-.4L42.1,508l-.18-.52-.18-.48-.08-.84.26-.74.48-.18.62-.17.52.09.4.57.35.78.7.79,1,.44.53.18.61.08.52,0,1.58-.26.48-.18.53-.31.57-.26.88-.7.35-.44.39-.39.44-.35.22-.53,1-1.49.17-.53.26-.48.14-.57L55,501l.26-.48.09-.57.26-.61,0-.48.17-.66.13-.48.18-.62,0-.52.13-.62-.08-.3-.79.79-.35.39-.66.61-.44.31-.44.39-.48.27-.52.26-1.49.61-.57.13-.57.18-1.71.09-.49-.09-1.13-.18-.53-.21-.53-.18-.52-.26-.35-.4-.49-.39-.39-.35-.26-.44-.53-1-.17-.52-.31-.49-.09-.52-.13-.57-.22-.57L42,492.43v-.62l-.22-1.75.14-.53V489l.08-.62v-1.14l.14-.57-.05-.3-.26.17-.35.4-.48.48-.44.39-.75.75-.48.3-.39.4-.49.26-.43.26-.53.22-.61.27-.53.13-.48.17-.57.09-1.14.13-.75-.09-.7-.3-.26-.53-.09-.52.27-.53.61-.35.92-.09.7-.17.88-.13,1.36-.53,1.13-.7.49-.4.39-.39.53-.35.35-.35.44-.4.26-.48.35-.52.39-.44.22-.48.22-.53.31-.48.17-.53.09-.57.35-.79.53-.61.52-.18.62.09.52.18.14.74,0,1.32,0,.61-.09.53-.18.65-.17,1.14v1.1l-.18.57v.61l-.08.57V488l0,.57,0,.57,0,.61-.13,1.14.17.62.05.52,0,.62.18.61.13.57.22.53.17.52.27.44.35.53.48.35.39.39.44.26.66.22,1,.09,1.4-.13.79-.18.48-.17.53-.22,1-.61.44-.36.3-.43.48-.4.75-.92.31-.48.21-.57.27-.48.22-.57.35-.83.17-.84.18-1.14.09-.52.17-.53,0-.66V486l-.14-1.14.09-.66-.13-.52.09-.84.17-.7.53-.26.66-.09.43.18.49.3.22.79.13.84ZM34,489.89v-.18l-.22,0v.17Zm.7-.92-.26,0v.26l.26-.09Zm.74.83.14-.18.3-.3v-.4l-.3.18-.14.13-.26.35-.09.26Zm1.23-1.23v-.17l-.13,0,0,.13Zm.66.53-.13-.05,0,.13.13.05Zm.7-.75-.26,0v.26H38Zm.7-.7h-.31v.26h.27Zm1.36-1.23-.26,0,0,.26.26.05Zm.61-.7-.22-.08,0,.21.18,0Zm.79-.7-.31-.09,0,.31.26.09Zm.92,1.23.09.26.26,0,0-.27-.26,0-.18-.13-.09-.22-.26-.22-.18.22.22.26.22.05Zm-.61-2v.35l.35-.05,0-.35Zm1,.52h-.3v.4l.35,0Zm0-2.5-.26.05v.3l.31-.08Zm0,1.27h-.27l0,.27.26,0Zm-.27,4.3h.22v-.22l-.26,0Zm0,1.1v.3l.31,0V489Zm.26,1.66v-.26h-.26v.26Zm0,1.1h-.18l0,.13.18,0Zm-.13,1.35,0,.09h.13l0-.13Zm.61,14.42.13-.13,0-.22-.22.05-.09.43-.13.09,0,.09.13,0,.09-.14Zm-.17-22,0,.4h.39l0-.44Zm.39-2.54H43.1l0,.35h.31Zm.39,5.87-.13-.22-.17-.13-.31-.17-.13.26.26.26.18.09.26.26.13-.13Zm-.43,2.24L43.1,491l0,.27.26.09Zm0-9.47-.22,0v.26l.22,0Zm.08,3v-.3h-.3l0,.35Zm-.3,2.41v.31l.26,0V487Zm.3,5.44-.3-.05v.31h.3Zm0-2.68-.22,0V490l.18,0Zm.09,4.17.13-.13.17-.09.09-.18.13-.17v-.27l-.13,0-.13.26-.18.18-.17.13-.22.18V494Zm-.09,1.22h-.13l-.05.09.14,0ZM44,507.72l-.3.13-.14.18-.08.17-.13.18-.09.22.26-.09.18-.13.13-.18.13-.13Zm0-25.2v-.22l-.18.05.05.22Zm0,1.36v-.26H43.8l.05.26Zm0,1.1-.22-.09v.31l.22,0Zm0,9.42h-.13v.13H44Zm.57,1.8-.13-.18-.22-.13-.26-.13,0,.26.17.18.18.3.17.18.22-.09Zm.18,12.53,0-.31h-.26l0,.27Zm-.09-13.54-.09-.05,0,.09.09,0Zm.61,13.93h-.13v.18h.13Zm.09-12-.13,0,0,.17h.13Zm.66.66-.13-.05,0,.22H46Zm0,10.65-.13-.05v.22l.17,0Zm.53-10.13,0,.27h.26l0-.27Zm.21,10.78h-.21v.31l.21,0Zm0-11.92-.17,0,0,.18.13.13.22.3.09.22h.31l0-.26-.17-.13Zm.57,11.31-.13,0,.09.14.09-.05Zm.75-9.86v-.35l-.26,0-.05.31Zm0,10.65v-.18h-.18v.18ZM48.93,498l-.09-.13-.26,0V498l.18.08.17.05.18.44h.26v-.27l-.22-.08Zm-.35,10.56v.22l.18-.08,0-.18Zm.61.62,0,.22.22,0,0-.22Zm1-11.4-.22.05,0,.17h.26Zm.52,10.08-.21.22-.18.13-.18.09-.17.13v.35l.31.22.26.31.26-.18-.3-.3-.09-.22.09-.18.26-.3Zm-.13-9.24.18,0,0-.18-.17,0Zm.84-.75-.14-.09-.08.13.13.09Zm0,10.69-.09,0-.09.09.14,0Zm.48-.74,0,.22h.26v-.22Zm.57-.7.05.22h.17v-.22Zm1-.7-.26-.05,0,.22.27.09Zm.39-.62v.27l.27-.05v-.22Zm.31-1.27-.17-.09-.05.18.13,0Zm.35-.7,0,.22.26,0v-.27Zm0,1.32,0,.21.22,0,0-.22Zm1-.66-.3-.09-.05.26.27.09Zm0-9.42h-.3v.26l.26,0Zm0,7.84-.22,0-.13.14v.3l.3,0,.14-.13,0-.22,0-.13.31-.05.09-.26-.31,0-.09.26Zm.61-8.54h-.3l0,.26.35,0Zm.05,6.53-.31.21,0,.31.27,0,.13-.4.17-.22.18,0,0-.26-.3,0,0,.18Zm.7-8.46-.27-.13-.21.22-.27.35L56,493l.22.26.13-.13.09-.13.26-.22.17-.13Zm-.84,11.3-.08,0v.13l.08-.09Zm.44-8.63v.22h.27v-.22Zm.05-1.4,0,.17h.22v-.22Zm.22,8.06h-.22V502l.22,0Zm0-4h-.18V498h.18Zm0,1.32h-.18v.22l.22-.05Zm-.13-2.54,0,.13h.13v-.13Zm.7.57h-.26l0,.17.22,0Zm0-6.8h-.26l.09.22h.22Zm.18,1.32-.35-.05,0,.36.4,0Zm-.09,1.44L57.3,493l-.09.17.22.09Zm0,2.9,0-.22-.27,0,0,.18Zm-.09,2.45h-.22v.18l.22,0Zm0,1.45,0-.09h-.14l0,.13Zm.13-5.52h-.26v.21l.26.05Zm.4-5.61.43-.14v-.3l-.3-.09-.22.22-.09.17-.22.27-.17.09-.05.26.26-.09.09-.17Zm.17-4.34-.17-.13-.09.13.13.13Zm0,2.54-.26,0,0,.3h.26Zm.09,4.12-.3-.05-.05.27.31,0Zm.05,1.23h-.4l.05.39.39,0Zm-.09,1.4-.31-.05V494h.31Zm0-7.76,0-.22-.22-.08,0,.26Zm-.08,3.9v-.09h-.13l0,.14Zm.35,5.83.09,0-.05-.08-.09-.22-.13-.31-.3-.09v.31l.3.17Zm-.18-12.45V483l-.22,0v.22Zm.53,8.77,0-.26-.26,0,.05.26Zm0-5.39,0-.26-.26,0v.27Zm0,1.14-.22-.05v.22h.17ZM58.53,493v.26h.22V493Zm.31-9,0-.26-.22-.09-.09.26Zm-.27,4.95v.18l.22-.05,0-.13Zm.09-3.9v.13h.13l.05-.13ZM81.84,502.2l-.17.74-.4.53-.22.48-.17.53-.4.44L79.92,506l-.44.66-.53.61-.39.35-.44.39-.44.31-.57.26-.44.27-.52.13-1.67,0L74,508.9l-.66-.13h-.7L72,509l-1.27.75-.7.3-.57.18-.48.13-.53,0-.92.05-.79-.09-.52,0-1.14-.49-.53-.26-.39-.44-.48-.3-.4-.44-.3-.53-.36-.48-.17-.48-.31-.57,0-.57-.13-.61-.18-.53.09-.61-.13-.57.09-.57L62,501.1l0-.61.09-.52.17-.62.09-.48.26-.61.18-.57.39-.49.18-.52.39-.48.35-.49.27-.48.78-.79.53-.39.92-.57.57-.22.57-.13.53-.18.87-.13,1.19-.09.87.09,1.18.18,1,.52.49.27.48.39.39.44.31.44.31.48.21.57.49,1.71-.05.52.05.62.08.57,0,.61-.09.88-.13.87,0,.57-.57,1.71-.09.57-.26.57-.22.48-.05.57.35.27.92-.09.71-.35.48-.35.44-.35.3-.53.4-.44.52-1,.35-.48.22-.53.18-.53.57-.74.7-.39.53.17.35.39Zm-19.37-.61.22,0v-.13h-.22Zm.18,3.85-.13,0-.05.13h.13Zm-.13-2.85v.22h.22v-.22Zm.26,1.36h-.26v.27h.22Zm.7,1,0-.39-.4.08v.4Zm-.13,1.27,0-.26-.22,0v.27Zm-.22-6.66h.26l0-.31h-.31Zm0,1.23h.22v-.18h-.22Zm.35,1.14-.31-.05,0,.35h.35Zm-.35,1.53.22,0,0-.22-.18,0Zm.22,3.86h-.13v.13h.13Zm.44-3,.22,0L64,504l-.17,0Zm.26,1.05-.22,0,0,.22H64Zm-.22-6.66.05.27.21,0,0-.26Zm0,1.28.09.26.22-.05,0-.26Zm.35,1.22h-.26l-.09.26h.31Zm-.13,1.8,0-.26-.18,0,.05.22Zm-.17-5.57h.21l0-.13h-.17ZM64,506.8l-.09,0,0,.17L64,507Zm0,1.27-.13,0v.22H64Zm.52-.57.18,0-.09-.18-.13.05Zm0-10.82,0,.3.26-.08,0-.27Zm0,1.49.13-.05,0-.17-.09,0Zm0,1.44h.22l0-.3-.27-.05Zm8.59,2.63.22-1.31.09-.83,0-.57-.13-.62-.13-1.18-.13-.53-.22-.57-.35-.43-.44-.35-.48-.27-.48-.17-1-.13-1.09.08-.7.27-.53.3-.48.31-.84.79-.26.44-.61,1-.09.48-.44,1.05,0,.57-.35,1.45-.09.87,0,.53-.08.57.22,1.14.17.61.35.57.26.4.4.44.44.3.57.27,1.62,0,.88-.26.74-.4.35-.66.35-1.31.26-.48.4-.44.66-.44.52-.48.18-.53Zm-8.54,4,0,0,0-.14-.08,0Zm.17,2.5h-.17v.13l.17,0Zm.4-11.48,0,.13.18,0-.05-.14Zm.3,10.78-.26,0,0,.27.26,0Zm-.26-11.83.22-.05,0-.22-.18.05Zm1,12.75,0-.26h-.35l0,.26Zm-.3-13.54.17,0,0-.26-.22,0Zm.09,1.18,0,.13H66l0-.13Zm.52-2,0,.27h.31l0-.31Zm0,1.67h.13l0-.09-.14,0Zm.35,13.19-.26,0v.26h.26Zm.53-.57h-.18l0,.13h.17Zm-.13-14.81h.17v-.18h-.17Zm.61.83H68l0-.26-.22-.05Zm.26,14.51-.22,0v.22h.22Zm.75-.53-.09-.26-.22.13v.17l0,.14,0-.09Zm-.22-14.81h.17v-.18l-.17.05Zm.88,14.33,0-.26h-.26l0,.22Zm-.18-15,.09.08.09-.13-.14,0Zm.57.66,0,.17.22,0V494Zm.26,14.68h-.22v.17h.22Zm.62-.57h-.18l0,.13h.14Zm.78-.79-.3-.09-.09.31.26.13Zm0-1-.08-.26-.27,0,.14.22Zm-.3-12.18.26,0v-.17l-.22,0Zm.92,11.44,0-.13-.17,0,0,.13Zm0,1.4v-.22h-.17V507ZM72,493.48l.09,0,0-.13-.13,0Zm0,1.36.18,0v-.22H72Zm.18,13.32,0-.13H72v.22Zm.35-2.15v.35h.26l0-.3Zm.39,1.67,0-.4-.31.05,0,.39Zm0-2.63v-.31H72.6v.31Zm-.22-11h.13v-.13h-.13Zm.09,1.14v.22h.13l0-.27Zm.48-.31.26,0v-.22h-.26Zm.39,12.05,0-.35h-.35l0,.4ZM73.3,504l0,.26.27,0V504Zm.3,1.36h-.3l0,.26h.35Zm-.13,2.72-.13-.05,0,.13.13.09ZM73.6,496h-.26v.22h.18Zm.22,2.23.18.05,0-.18h-.17Zm.44,6.49-.3-.05-.14.31h.35Zm-.39-9.07h.35v-.4l-.35,0Zm.39,11.74-.39,0,0,.44.35,0Zm.26-11.09.18,0,.09-.35h-.35l0,.17-.26.31-.22.18v.3l.22.09.18-.31,0-.13Zm-.39,10.08,0-.22-.21,0,0,.22Zm0-6.79,0-.26-.17,0v.26ZM74,503.38v.27l.17,0,0-.26Zm.21-1.36L74,502v.18h.13Zm.35-.65v.26h.31l0-.26Zm.4,1.22-.31-.08-.09.35.36.08Zm-.09,4.26-.26-.05,0,.26.27.05Zm-.22-9.56v.22h.22l0-.17Zm0,2.68v.21l.18.05,0-.18Zm.18,4.07h-.18v.18h.18Zm.09-5.08v-.22l-.18-.05,0,.22Zm.35-.66.26,0,0-.27-.22.05Zm0,1.18h.26l-.09-.3h-.17Zm.26,8-.22,0,0,.36h.22Zm-.09-5.35,0,0,0,.13.09,0Zm1.49,5.39-.13,0,0,.22.17,0Zm6,2.68-.57-.18-.53-.26-.48-.4L81.1,509l-.44-.44-.53-1.05-.08-.57-.18-.61v-.62l-.09-.87V504l.18-.57,0-.57,0-.52.13-.53v-.57l.18-.57.21-.48v-.53l.35-1.71v-.52l.18-.57.09-.88-.18-.79-.48-.21-.79.08-.79,0-.17-.53.26-.74.53-.62.44-.26.56-.13.57-.09h.66l.53.22.52.26.44.44.31.44.22.57,0,.79,0,.83-.13.57v.88l-.14.87-.13.53-.22.61-.08.57,0,.88-.26,1.53,0,.49,0,.57v.65l0,.88,0,.79.17.61.36.53.3.3.48.22h.84l.92,0,.44-.22.61-.22.52-.3.4-.31.79-.79.35-.53.31-.43.26-.49.3-.48.18-.52.22-.53.31-.57.13-.57.09-.53.21-.57,0-.83.17-.83.14-1.18.08-.53.13-.53,0-.61-.09-.48.13-.61.09-.57.17-.71.49-.57.61,0,.39,0,.53.22.35.66,0,.83-.09.53v.61l-.22,1.14v.57l-.13.57-.13,1.18,0,.53-.09.57v.61l-.09.57-.13.57,0,.53v.57l0,.66v1.18l.22,1.1.13.52.27.53.65.26.84,0,.48-.18.48-.26.35-.44.61-.57.57-.61.18-.53.39-.48.22-.48.57-1.06.35-.52.13-.44.53-.66.66-.43.52.08.44.35.09.79-.26.83-.31.53-.18.48-.39.53-.18.48-.26.57-.39.48-.31.53-.31.48-.39.39-.31.49-.35.39-.44.44-.52.35-.4.39-.52.31L96,510l-.79.22-1.14.08-.92-.17-.44-.31-.43-.39-.4-.53-.44-1.05-.08-.57-.18-.61,0-.57-.09-.35-.31.22-.52.87-.79.92-.31.44-.39.35-1,.7-.92.53-.57.26-.53.18-.57.08-1.71.05Zm-2.76-6.58,0,.31.31-.09,0-.22Zm.22,1.45-.18-.05,0,.18.13,0Zm.08-10.83-.26,0v.26l.26.05Zm.62,10.08h-.31l0,.27H81Zm0-1.14-.09-.22-.18.05,0,.17Zm0-9.64-.18,0,0,.13.13,0Zm0,8h-.26v.27h.26Zm0,4h-.26v.27h.26Zm-.22-5.34v.22h.18l0-.22Zm.22,6.57-.17.13,0,.27.27-.05,0-.17.09-.27.22-.08.26-.14v-.21l-.26,0-.09.31-.13.17Zm.44-6-.13.26.26.27.35.22.13-.14-.22-.3-.08-.22Zm.18-6.7h-.27v.3l.27.05Zm0,1.62,0-.27-.27.05.09.26Zm0,6.79,0-.22-.26-.09-.09.31Zm-.09,1.27v-.22h-.22v.22Zm.05-6.7,0-.18-.26-.09v.22Zm0,1.18h-.22v.13h.22Zm-.22,1.36.08.13.14-.09-.05-.09Zm0,5.34v.22h.26V505Zm0,2.85.3,0v-.31h-.26Zm.7-2.23h-.13v.09l.08.08Zm.26-10.87h-.31l0,.31h.35Zm-.31,2.76,0,.26h.26v-.17Zm0,2.81,0,.17.13,0,.13-.21Zm.22-1.23v-.22h-.22v.22Zm0,7.89h-.22v.22l.22-.05Zm.18-10.74.17-.13.09-.22.18-.31h-.27l-.17.22-.31.31,0,.26Zm-.18,12.05-.17,0v.17h.22Zm.48-14.2-.08-.17-.13-.13-.22-.18v.31l.22.3.08.22.13-.08Zm.18,15-.18,0,.09.09h.09Zm.74-.84-.17.14,0,.17.18-.09Zm.75.92-.18-.08-.08.08.13.14Zm.48-.78-.17,0,0,.26.22-.09Zm.62.78,0,.14.13-.09-.09-.09Zm.83-.7-.13,0,0,.13.13,0Zm3.28-3.24.09-.22h-.22v.18Zm.71-.66v-.17H90.3l0,.22Zm.48-2.06h.26l0-.22-.27,0Zm.35,1.49v-.35l-.31,0,0,.39Zm0,1.23v-.35l-.31,0v.31Zm.31-.88-.09.31h.35l0-.31Zm.35-1.49-.4.05.05.39.35-.09Zm-.4,2.81.05.26h.26v-.26Zm.31-6.44,0-.31h-.26v.31Zm0,2.67,0-.26h-.31v.3Zm-.22-1.4h.22v-.22H91.7Zm.18-2.68,0,0-.17-.09v.13Zm.66,3.16-.27,0,0,.3.31.05Zm0,2.89v-.26h-.27v.26Zm-.22-8.37v.26h.26v-.26Zm0,2.67v.27l.26,0v-.22Zm.26,1.45h-.22l0,.22h.22Zm0,5.61v-.26l-.26,0,0,.22Zm-.26,2.41v.18h.13l0-.18Zm.22-1,0-.13h-.22l.09.13Zm.65-11.61h-.26l.09.21h.17Zm-.26,1.4.22,0,0-.17-.17-.05Zm.83,11.39-.26.13-.18.13-.08.14-.13.17-.18.26.39,0,.27-.35.13-.13Zm-.57-10.08h-.08v.13l.13,0Zm0,9.47,0,0,.08.05,0-.09Zm.79,1.84h-.18v.17h.18Zm.66-.79-.22.13-.13.26h.35l.13-.21Zm1.35.26-.17,0,0,.13.09.13Zm2-.61v-.13l-.18-.09-.09.22Zm20.42-6.75.39.39.09.71-.26.83-.27.48-.43,1-.31.48-.35.53-.61,1-.62.92-.39.44-.31.39-.48.44-.31.35-.52.35-1,.53-.57.22-1.14.21-1.62.09-1.67-.3-.92-.62-.44-.35-.43-.39-.36-.4-.17-.57-.22-.52-.31-.48-.08-.53,0-.57-.22-.88v-1.4l.18-.61.08-.53.09-.57.13-.61.22-.53.13-.57.18-.52.26-.57.13-.57.22-.57.57-1,.18-.57v-.44l-.79-.39-.7-.22-.62,0-.48.44-.13.48-.83,2.28-.09.48-.26.57-.35,1.1-.35.57-.14.52-.26.53-.52.61-.57.31-.53-.13-.39-.44,0-.7.18-.7.26-.57.31-.44.17-.48.13-.53.27-.48.22-.53.13-.56.17-.49.22-.57.18-.61.22-.53,0-.57.22-.52v-1.71l-.09-.53.13-.57.4-.44.48-.3.53-.05.52.18.35.39.22.57.44.75.48.66.44.13.61.08H108l.53-.13.83-.17.83,0,.44.26.31.58.13.52-.09.57-.35.83-.74,1.14-.31.53-.35.48-.4,1.05-.43,1.05-.13.57-.09.53-.27,1.1,0,.56v.53l-.13.61.17,1.67.71,1.4.39.35.53.22.65.13.7,0,.88-.09.53-.18.44-.22.39-.3.53-.35,1.18-1.27.52-.92.27-.44.3-.53.22-.52.31-.57.26-.49.44-.74.7-.44Zm-14.73-6.57h-.26l0,.26.22,0Zm0-1.36h-.22v.26l.22,0Zm.26.57V494h.31l0-.26Zm.22,1.49-.18-.05,0,.14.18.08Zm.18-2.54-.18-.22-.09.26.18.09Zm.61.43-.35,0v.26l.35.05Zm.66.75-.27-.09-.08.31.35,0Zm0,9.42h-.18v.13h.18Zm.35,2,0,.27.18-.05v-.22Zm.22-10.51v-.22H106v.17Zm0,11.92-.18-.05v.22l.22.05Zm0-2.5V504l-.09,0,0,.17Zm0-2.85h-.13v.17h.13Zm-.13,1.36,0,.13.08,0,0-.14Zm.75-.53v-.26h-.22v.26Zm0,5.09h-.22v.21h.26Zm0-3.77,0-.18h-.22v.18Zm-.18,1.09,0,.22.17.05,0-.22Zm1-10-.18-.22-.3-.3-.18-.09-.22-.13-.08.13.3.3.22.35.31.18Zm-1,11.4v.13H107v-.18Zm.92-8.68-.22-.05,0,.18h.22Zm-.09,1.36-.09-.09-.09.09.09.08Zm-.18,9.59.13.05,0-.13h-.13Zm.27-8.28-.18,0,0,.09.17.13Zm.39-5.83h.22l0-.17H108Zm.26,2.41-.26,0,0,.22.26,0Zm0-1.44-.26,0,0,.26.22,0Zm-.26,2.76V498h.18v-.17Zm.74-3.38,0,.18.18.09,0-.22Zm0,1.36v.31L109,496l0-.26Zm1-.35,0-.39h-.35l0,.39Zm-.09,13.06-.18,0v.22h.18Zm0-14.55,0-.09-.09,0,0,.13Zm.44.53v.22l.22,0,.05-.26Zm0,14.81v.22h.17v-.22Zm1.53,0h-.18v.22h.18Zm20,1.31-.57,0-.48-.13-.31-.7-.13-.84,0-.48.09-.61.08-.57.05-.53-.05-.61.14-.57,0-1.71.09-.52-.05-.57.05-.57,0-1.14.05-.57-.09-.57.13-.57v-.57l0-.62,0-.52,0-1.14.13-.48-.13-1.19v-1.18l-.05-.53-.09-1.13.05-.53-.13-.61,0-.57-.13-.84-.18-.79L130,488l-.13-.48,0-.57-.14-.61-.21-.49-.36-1.05-.17-.57-.22-.52-.26-.49-.27-.52-.39-.44-.53-.53-.92-.78-.3-.66v-.62l.35-.48.52-.26.75.09.83.39.35.4.44.43.39.36.36.52.65.92.31.57.17.48.18.53.22.52.17.57.27.53,0,.53.09.61.17.79.18.88v.61l0,.52.18,1.14,0,1.8.05.31.13-.31v-.53L133,491l.26-1.14.39-1,.13-.57.18-.57.22-.48.09-.57.22-.53.61-1,.17-.52.4-.48.44-.7.48-.66.39-.53.31-.39.48-.35.48-.4,1.45-.83.44-.31.57-.08.48-.22.83-.18.84,0,1.13-.05.62.09.52.13.53.18.57.22.48.3.44.36.35.3.4.4.3.48.53,1,0,.57.18.52,0,.57v1.67l-.13.48-.13.57-.26.52-.4,1.1-.35.39-.48.75-.48.66-.44.39-.48.31-1,.74-.39.27-.57.35-.48.22-.22.26.52.26.92.13.44.18.88.26.83.35.53.35.52.27.44.35.35.43.48.44.35.4.4.48.17.44.35.52.18.57.17.48.14.62.3,1.66v.62l-.09.61-.21,1.14-.14.53-.22.52-.13.48-.35.57-.52,1-.31.44-.48.39-.4.49-.52.57-.75.48-.48.3-.48.27-.57.17-.57.22-.53.18-.57.08-.52.09-.57,0-.66,0h-.53l-.57-.09-.65,0-1-.26-.57-.22-1.14-.35-.49-.27-.43-.3-.44-.22-.7-.57-.35-.66.13-.57.22-.48.3-.44.71.13.78.31.53.39,1,.48.52.22.57.18.57.09.57.13.53,0h.52l.66,0,1-.26.66-.14.48-.26,1.14-.83.66-.61.35-.4.57-1,.3-.48.13-.53.18-.61.09-.57,0-.48-.09-.57v-.57l-.39-1.71-.31-.48-.26-.44-.83-.92-.49-.31-.39-.39-.48-.31-1.19-.44-.52-.22-.88-.17-.65-.09-1.45-.09-.83-.17-.79-.31-.31-.44-.09-.57.18-.48.57-.44,1.84-.87,1.58-.92,1.75-1.49.31-.53.39-.44.31-.48.79-1.53,0-.62.09-.52-.05-.62-.17-.57-.05-.61-.35-.48-.3-.4-.4-.35-.52-.21-.66-.09H143l-.75,0-.52.09-.57.26-.53.13-.48.31-.4.26-.48.35-1,1-.48.7-.88,1.36-.31.52-.17.53-.31.57-.13.48-.22.57-.18.57-.26.53-.17.52-.14.53-.08.57-.22,1.18-.22.53-.18.61v.57l-.17.53-.26,1.7v.58l-.27,1.22v.48l-.09.57,0,1.14-.22,1.23v.53l-.09.57,0,.57-.13.61-.13,2.23-.09.66-.13,1.1.09.52-.22.83-.44.66ZM128,480.81h-.13V481H128Zm.7.71h-.17l0,.17.18,0Zm.79.52h-.3v.31h.3Zm.53,2.06h-.31v.26h.31Zm0-1.05,0-.26h-.26l0,.3Zm.44,1.71V485h.17v-.22Zm.13-1.23,0,.13.13,0,0-.14Zm.39,3.11.05.27.08.13.27,0-.09-.39Zm.35,5.52-.22,0,0,.31.22-.09Zm-.17,5.57.17,0,0-.21-.18-.05Zm.13,9.12h-.13V507h.13Zm.09-21.17,0-.09h-.13l.05.09Zm0,2.37-.18,0v.26l.22,0Zm0,1.44h-.18v.22h.22Zm0,1.36h-.13V491h.13Zm.53,2.32.17-.09.18-.26-.35-.22-.22.4-.17.22-.27.26v.26l.31,0,.13-.31Zm-.44,1.62-.22,0V495l.22,0Zm0,1.58v-.22l-.18,0v.22Zm0,2.5h-.13V499h.13Zm-.13,4v.18l.22-.05-.09-.17Zm.13,1.45,0-.13-.18-.05v.13Zm.09,1.18-.22,0v.26h.22Zm0-3.94h-.17v.17h.17Zm.7-7.58-.39,0,0,.39.35,0Zm0-2.63-.3-.05,0,.26.31.05Zm0,5.34-.35,0,.09.35.31-.05Zm0-1.05,0-.22-.26,0,0,.26Zm-.18,2.5-.08.22h.21l.05-.18Zm-.08,6.66v.26l.3,0,0-.26Zm.3-5.13v-.26l-.26-.05v.27Zm0,2.41h-.31l0,.31h.27Zm-.09,1.45-.18-.09,0,.18.17.08Zm0,2.63h-.22v.17h.22Zm0-16-.18,0v.22h.18Zm-.05,10.61-.13,0V501h.18Zm.66.7-.26,0,0,.27.22-.05Zm0,2.72-.17-.09-.09.22.22,0Zm.09-10.57,0-.3-.27.08.05.31Zm0,3.82h-.26l-.05.26.27,0Zm0-2.81-.26,0,0,.3h.3Zm-.13,8.07h-.17v.21h.17Zm.18-6.45.52-.52.05-.35-.35,0-.13.18-.27.26-.09.13,0,.35Zm-.09,2.55-.18-.05,0,.22.22,0Zm.09,1.31-.27,0,0,.3.26.05Zm.57-6.13-.35,0-.05.31h.35Zm-.35,5.56.17,0v-.13l-.13,0Zm.35-1.45-.27,0,0,.26.22.05Zm-.09-1.05v-.17h-.18v.17Zm.48-3.64,0,.27h.21v-.22Zm.75-4.55,0,.09h.09l-.05-.09Zm.79-1.89v-.17l-.09-.05-.05.18Zm0,1.14h-.14v.18h.14Zm1.27-3.81,0-.09-.13,0v.13Zm.57-.83,0,.13.13-.05,0-.13Zm.78,24.63h-.21l0,.22.22,0Zm.66-25.68,0-.18-.18,0v.22Zm0,26.38h-.09l0,.13.13,0Zm.79-.62h-.17l-.09.18h.22Zm.57.92V509h-.17v.17Zm.7-15.6-.22,0,0,.17.22.09Zm-.22,16v.13l.13,0v-.13Zm.27-28.09h-.18v.18h.18Zm.39,11.31V493h.31v-.26Zm.31-12-.27-.05V481h.27Zm.7,12.49-.4.17.05.35.35.05.13-.4.13-.22.26-.09v-.21l-.26,0-.09.22Zm-.13-11.57v-.18h-.22l0,.18Zm0-1.32,0-.17-.21-.05-.05.22Zm0,11.88-.22,0v.22l.22,0Zm0,17.44v-.18H142v.18Zm.66-15.29,0-.27h-.22v.27Zm0-13.33v-.22h-.22l0,.27Zm.57-1-.31,0,.09.31.27-.09Zm0,13.41-.22,0,0,.18h.22Zm.75-12.45,0-.26h-.31V481ZM144,494.18l-.18,0v.22l.22,0Zm0,14.64h-.22V509h.22Zm.48-27.3,0-.09-.09-.09,0,.13Zm.14,28-.14,0,0,.22h.13Zm-.05-29.27-.09,0v.13h0Zm.09,10.69-.13,0,0,.13.14.09Zm0,3.9-.14,0V495l.18,0Zm-.14,13.41v.22l.18.05,0-.22Zm1-27.52-.35.05-.09.35.35-.05Zm-.09,28.18-.21,0,0,.22.22,0Zm.57-27.52-.26.09.05.22H146Zm.57,14-.17-.17-.13-.18-.18-.13-.26,0,.13.3.09.14.17.13.14.13.26.13Zm.18-13.27-.26,0-.05.31h.27Zm-.22-1.14,0,.13.13,0,.09-.13Zm.22,7.84-.26,0v.3h.3Zm-.26,18.71.08.27.27,0,0-.31Zm.3-20.11-.22,0,0,.26.26,0Zm.66-.62-.31.05,0,.3h.3Zm-.13,21.39-.18-.09v.18l.14.09Zm.09-23.88,0-.18h-.26v.18Zm0,11.87h-.26v.27l.26-.05Zm0,10.61-.26-.05,0,.27h.26Zm-.26-23.93V483h.18v-.18Zm0,5.35v.22h.18l0-.22Zm.79-4.69h-.22v.22h.22Zm0,22.7h-.26v.3l.26,0Zm-.08,1.36-.13-.05,0,.13.18.05Zm.08-22.84-.21.05V485l.21-.05Zm-.13,2.72-.08,0v.14l.13-.05Zm-.08,9.42,0,.13h.13l0-.13Zm.87.66-.3.13-.14.13-.13.18-.13.22.09,0,.26-.13.4-.26Zm-.17,7.93v.27l.26,0v-.31Zm0,1.45,0,.13.13,0,0-.13Zm.26-8.11h-.18V499h.18Zm.57,3.38-.31.13-.17.35-.05.26.13-.13.36-.26Zm-.26,1.53.26.09v-.31l-.26,0Zm.3-5.35,0-.26h-.27l0,.26Zm-.26,1.14v.27h.22l0-.31Zm.31,5.31h-.31v.26h.31Zm0-4h-.31V501l.27,0Zm.66,3.25-.27,0-.13.31h.35Zm-.09-4.91,0-.18-.26-.08,0,.21Zm0,1.05-.26,0,0,.27.26-.05Zm0,1.31-.26.05v.26l.3,0Zm0,1.23h-.3V503h.3Zm7.37,7.5L157,510l-.53-.26-.48-.4-.26-.39-.44-.44-.53-1.05-.09-.57-.17-.61v-.62l-.09-.87V504l.18-.57-.05-.57.05-.52.13-.53v-.57l.17-.57.22-.48v-.53l.35-1.71v-.52l.18-.57.09-.88-.18-.79-.48-.21-.79.08-.79,0-.17-.53.26-.74.52-.62.44-.26.57-.13.57-.09h.66l.53.22.52.26.44.44.31.44.22.57,0,.79,0,.83-.14.57v.88l-.13.87-.13.53-.22.61-.09.57,0,.88-.26,1.53-.05.49.05.57v.65l0,.88,0,.79.17.61.35.53.31.3.48.22h.84l.92,0,.43-.22.62-.22.52-.3.4-.31.79-.79.35-.53.3-.43.27-.49.3-.48.18-.52.22-.53.3-.57.14-.57.08-.53.22-.57.05-.83.17-.83.13-1.18.09-.53.13-.53.05-.61-.09-.48.13-.61.09-.57.17-.71.49-.57.61,0,.39,0,.53.22.35.66,0,.83-.08.53v.61l-.22,1.14v.57l-.13.57-.14,1.18.05.53-.09.57v.61l-.09.57-.13.57,0,.53v.57l0,.66v1.18l.22,1.1.13.52.26.53.66.26.83,0,.49-.18.48-.26.35-.44.61-.57.57-.61.18-.53.39-.48.22-.48.57-1.06.35-.52.13-.44.53-.66.66-.43.52.08.44.35.09.79-.26.83-.31.53-.18.48-.39.53-.18.48-.26.57-.39.48-.31.53-.31.48-.39.39-.31.49-.35.39-.44.44-.52.35-.4.39-.52.31-.53.18-.79.22-1.14.08-.92-.17-.44-.31-.43-.39-.4-.53-.44-1.05-.09-.57-.17-.61,0-.57-.09-.35-.31.22-.52.87-.79.92-.31.44-.39.35-1,.7-.92.53-.57.26-.53.18-.57.08-1.71.05Zm-2.76-6.58,0,.31.31-.09-.05-.22Zm.22,1.45-.18-.05,0,.18.13,0Zm.08-10.83-.26,0v.26l.26.05Zm.62,10.08h-.31l0,.27h.18Zm0-1.14-.09-.22-.18.05.05.17Zm0-9.64-.18,0,0,.13.13,0Zm0,8h-.26v.27h.26Zm0,4h-.26v.27h.26Zm-.22-5.34v.22h.18l0-.22Zm.22,6.57-.18.13,0,.27.26-.05,0-.17.09-.27.21-.08.27-.14v-.21l-.27,0-.08.31-.13.17Zm.44-6-.13.26.26.27.35.22.13-.14-.22-.3-.08-.22Zm.17-6.7h-.26v.3l.26.05Zm0,1.62,0-.27-.26.05.09.26Zm0,6.79,0-.22-.26-.09-.09.31Zm-.09,1.27v-.22h-.22v.22Zm0-6.7,0-.18-.27-.09v.22Zm0,1.18h-.22v.13h.22Zm-.22,1.36.09.13.13-.09,0-.09Zm0,5.34v.22h.27V505Zm0,2.85.31,0v-.31h-.26Zm.71-2.23h-.14v.09l.09.08Zm.26-10.87h-.31l0,.31h.35Zm-.31,2.76,0,.26H157v-.17Zm0,2.81,0,.17.13,0,.13-.21Zm.22-1.23v-.22h-.22v.22Zm0,7.89h-.22v.22l.22-.05Zm.18-10.74.17-.13.09-.22.17-.31h-.26l-.17.22-.31.31,0,.26ZM157,508.29l-.17,0v.17H157Zm.48-14.2-.08-.17-.14-.13-.22-.18v.31l.22.3.09.22.13-.08Zm.18,15-.18,0,.09.09h.09Zm.74-.84-.17.14,0,.17.18-.09Zm.75.92L159,509l-.08.08.13.14Zm.48-.78-.17,0,0,.26.22-.09Zm.61.78,0,.14.13-.09-.09-.09Zm.84-.7-.13,0,0,.13.13,0Zm3.28-3.24.09-.22h-.22v.18Zm.7-.66v-.17h-.17l0,.22Zm.49-2.06h.26l0-.22-.26,0Zm.35,1.49v-.35l-.31,0,0,.39Zm0,1.23v-.35l-.31,0v.31Zm.3-.88-.08.31h.35l0-.31Zm.35-1.49-.39.05,0,.39.35-.09Zm-.39,2.81,0,.26h.27v-.26Zm.31-6.44,0-.31h-.26v.31Zm0,2.67,0-.26h-.3v.3Zm-.22-1.4h.22v-.22h-.22Zm.18-2.68,0,0-.17-.09v.13Zm.65,3.16-.26,0,0,.3.3.05Zm0,2.89v-.26h-.26v.26Zm-.21-8.37v.26h.26v-.26Zm0,2.67v.27l.26,0v-.22Zm.26,1.45H167l0,.22h.21Zm0,5.61v-.26l-.26,0,0,.22Zm-.26,2.41v.18H167l0-.18Zm.21-1,0-.13H167l.09.13Zm.66-11.61h-.26l.09.21h.17Zm-.26,1.4.22,0,0-.17-.17-.05Zm.83,11.39-.26.13-.18.13-.08.14-.14.17-.17.26.39,0,.27-.35.13-.13Zm-.57-10.08h-.09v.13l.14,0Zm0,9.47-.05,0,.09.05.05-.09Zm.79,1.84h-.18v.17h.18Zm.65-.79-.22.13-.13.26h.35l.14-.21Zm1.36.26-.17,0-.05.13.09.13Zm2-.61v-.13l-.17-.09-.09.22Zm6.84,2.72-.52-.27-.92-.74-.4-.48-.17-.49v-.48l0-.39.17-.44.4-.48.53-.27.56.27.4.48.31.39.35.35.83.18.74,0,.57-.22.4-.52.26-.7.09-.53.31-.52.52-.62.05-.66-.14-.56,0-.62-.26-.48-.22-.53-.31-.52-.57-1.05-1.05-1.54-.22-.48-.44-.57-.22-.52-.35-.31-.48.09-.48.39-1.1,1.88-.17.49-.27.57-.26.52-.3.48-.18.44-.53.7-.57.35-.48-.17-.44-.35-.08-.79.22-.75.3-.52.18-.48.3-.57.18-.49.35-.52.22-.48.35-.53.39-.44.27-.52.39-.4.31-.44.44-.35.39-.7.35-.79.09-.57.17-.57.35-.43.4-.49.53-.3.57-.09H182l.61.13.4.4.22.43.13.53-.09.61-.17.57-.31.48-.31.84.09.79.44,1,.61.7.48.66.53,1,.35.53.44,1,.31.53.21.48.18.57.31.48.08.53,0,.92.17.83-.13.57.18.52.52.05.49-.18.48-.35.39-.44.27-.39.39-.48.26-.53.4-.52.3-.49.35-.57.71-1.31.56-.44.62.22.39.39.05.75-.13.79-.31.48-.35.53-.22.43-.31.49-.3.52-.18.4-.7.92-.44.44-.88.74-.43.31-.35.3-.57.27-.44.13-2,.39-.61.31-.57.31-.35.26-.88.35-1.4.26h-.79l-.79-.08Zm-1.18-2.19,0-.14-.13,0,0,.13Zm.57-11.71v.27l.22,0,0-.22Zm.22,12.14h-.18V509l.22,0Zm.61-12.84-.26.05,0,.26.26,0Zm0,13.54-.21,0-.05.22.22.09Zm-.21-14.68,0,.14.13-.05,0-.13Zm1,.88,0-.31-.31.05.09.3Zm-.31-1.66,0,.35h.3l0-.35Zm0,2.67v.22h.22v-.22Zm.22,12.22-.18-.08,0,.22h.17Zm.7-15.51-.35,0,0,.39.4.05ZM181,496h-.3l.08.35.31-.05Zm.09-1v-.35l-.35,0,0,.35Zm-.13,14.68,0-.13h-.09v.13Zm.74-15.29V494l-.39.09v.35Zm.35-2.15-.17.26-.13.13-.4.13.18.35.39-.21.13-.22.09-.18.09-.26Zm-.35,3.11-.35,0v.4l.4-.05Zm0,1.4-.3,0,0,.35h.31Zm-.21,1.32v.17l.13.05,0-.18Zm.3,11-.09-.18h-.21l0,.22.17,0,.22.14.09.3.31.09-.09-.31-.26-.13Zm.22-15.69v.26l.26,0v-.26Zm.26,1.44-.22,0v.18l.18,0Zm-.13,2.63,0,.18.13,0,.09-.13Zm.22,1.54,0-.22-.22-.05,0,.22Zm.7,10.12,0-.26-.22,0,0,.22Zm-.22-9.73v.18l.18,0v-.18Zm.79,10.17-.13-.09-.13.13.17.13Zm-.09-9.47h-.13l.05.22.17,0Zm.14,8-.27.09.05.26.26,0Zm-.22-1.05.22,0v-.22l-.22,0Zm.26-5.57-.18,0,0,.18.18,0Zm.66,4.69H184l0,.27.3,0Zm-.31,1.23v.35l.4,0-.05-.36Zm.35,1.71,0-.31H184l0,.31Zm-.26-7.06v.18h.17l0-.18Zm.52,6.14,0,.22H185l0-.26Zm.4-2.5-.09-.26h-.26l0,.31Zm-.09-2.89-.22,0V503l.22,0Zm0,1.27-.26,0v.27H185Zm.05,2.76h-.26V507h.26Zm.39-.74,0,.26.26,0,.05-.26Zm.27,1.31h-.31l0,.26h.27Zm-.09-2.54h-.18V505h.18Zm-.13-1.18h.17v-.14l-.17,0Zm.83,3.11-.31,0,.05.31.35-.05Zm0,1.62,0-.18-.22-.08,0,.22Zm.43-1v.27l.35,0-.08-.31Zm1,.62h-.26v.26l.21,0Zm.52-.57,0,.13.13,0v-.13Zm5.22,2.5-.31-.35-.44-.35-.22-.44-.39-.4-.22-.52-.13-.49-.18-.56-.13-1.1-.13-.61V504l.09-.57-.13-.66v-.53l.13-1.22v-.57l.17-.62.05-.52v-.66l0-1.18.26-1.23.14-1.14.43-1.4.49-.62.57-.21.52.08.57.27.26.7,0,.87,0,.57-.17.57-.26,1.71v.57l-.27,1.14.09.62-.13.52,0,.61-.22,1.1.05.57-.09.57.09,1.14v.61l.13.53,0,.57.27.61.22.53.48.35.66.17h.87l1-.48.39-.26.79-.79.35-.48.39-.4.62-1,.3-.53.44-1,1-1.75.75-.35.39.22.39.35.18.79-.31.7-.26.53-.13.52-.22.48-.31.49-.26.52-.31.44-.22.57-.3.44-.35.44-.35.48-.44.39-.27.44-.35.4-.52.35-.48.35-.49.22-.43.26-1.1.22-.92,0-1.27-.09Zm-1-9.12-.26,0-.13,0,0,.26.08,0,.27,0,.08-.09Zm-.08,4.08h-.27l0,.22,0,0,.27,0Zm0-6.84h-.22l-.09.09v.22h.27l0-.05Zm0,5.48-.22-.05,0,.22.22,0Zm-.26,2.8,0,.22.22.05v-.22Zm.44-6.57-.09-.22-.05-.13h-.21l-.05.22.05.09.08.08.22.05.09.13v.13l0,.13.05.09.13.09.09.08.13.05h.13l.13.17.09.18.22,0,0-.14-.22-.08-.13-.18,0-.09,0-.13-.27-.26-.13,0Zm-.14,2.37h-.21l-.05.26h.26Zm-.21,5.47,0,.14.17,0,0-.17Zm.21-10.82h-.08l-.05.13.13,0Zm.35-6.44-.26-.4-.09-.92.18-.79.31-.43.43-.4.79-.13.88.13.48.4.4.43.13.88-.18.83-.35.49-.57.3-.74.18-.84-.18Zm.57,11.74V502l-.08-.26-.09-.09,0-.13-.18-.13h-.13l-.18.17v.09l.13.26.09.09.27.09Zm-.48,4.78-.17.17,0,.27.26-.05,0-.13v-.22l.09-.13h.13l.17,0,.13-.18,0-.13-.13-.09-.18.18-.13.09-.09.08Zm-.13-9.51v.31l.18,0,.13,0v-.22l-.09-.09Zm.4,1.45-.09-.14h-.27l0,.27,0,.08.27,0,.09,0Zm-.14,5.65-.08-.22h-.18l0,.22Zm0-1.71h-.22V503l.18.09.09-.09Zm0-8.06h-.17v.22l.22-.05Zm0,1.71v-.22h-.22v.22Zm0,9.42v-.22h-.22v.26Zm0,2.41h-.18l0,.22.09.08.17-.08Zm.61-18.93h-.31l0,.35.35-.05Zm.48-.22.13-.35-.48-.31-.22-.31-.22.18.18.3.13.14.09.13.13.22Zm-.43,18.8,0-.27-.09-.08h-.22l-.09.08.09.22Zm0-9.86-.09-.09-.26.09.09.3h.26l0-.08Zm-.18,1.44-.08,0,0,.09,0,.13Zm.14-5.34-.14-.09-.08.17.17.09Zm0,1.31h-.18l0,.18,0,.08h.22Zm0,1.36-.14,0v.09h.14ZM193.64,509l0,.13.14.05,0-.18Zm.44-14.2,0,.14.17-.05-.08-.09Zm.39,13.5-.26-.09h-.09l0,.27.21.08Zm-.18,1.49v-.17l-.13-.09,0,.17Zm.22-19.54v-.35l-.35,0v.35Zm-.17-2.06v-.09h-.09l0,.09Zm.48,1.49v-.22l-.17-.05-.05.22Zm1,20-.09-.13-.27-.26-.08-.13-.18-.18-.17-.09-.14.14,0,.13.13.13.13.09.62.61.13-.13Zm-.75-20.9,0-.18h-.22l0,.18Zm1.4,20.16-.09-.13-.17-.18-.09-.13-.13-.09-.09-.08h-.26l-.09.21.22.09.13.09.09.09,0,.13.09.13.13.22.27-.09Zm.53-.7-.09.09,0,.26h.22l.05-.22-.05-.09Zm-.05,1.36v.17h.22l0-.17Zm.92-.71h-.26l0,.27.26,0,.09-.09Zm.44-.7,0,.14.09.21.08.09.14.05.08.08.22.05-.09-.22,0-.09,0-.13-.18-.18Zm.7-.57.05.14h.17l0-.22Zm1.32-1.35-.13.17-.35.35-.13.09-.14.17.22.14.22-.14.44-.43.13-.22,0-.09Zm1.45-2.59h.13l0-.13-.08,0Zm12.18,6.4-.44-.22-.48-.4-.31-.39-.26-.44-.26-.52-.05-.62-.22-.48-.13-.57,0-.61,0-.62v-.52l.09-1.14-.05-.62.18-1.13v-.57l.09-.53,0-.66.09-.57.13-.52v-.88l.13-.88-.13-.57-.35-.52-.39-.4-.79-.13-1,.05-.48.17-.57.18-.44.35-.52.35-.79.79-.44.48-.31.44-.3.52-.44,1.06-.35.48-.35,1.14-.05.57-.26.87-.09.79,0,.61-.09.57,0,.49v.61l0,.48v.57l.09.62,0,.48-.08.61v.79l-.4.66-.57.08-.57.05-.48-.09-.48-.66-.13-.79,0-.56-.09-.53,0-.57.09-.61,0-.53,0-.61v-.57l-.05-.62.09-.61.13-1.67v-.57l0-.61.09-.52v-.62l0-.61,0-.57.18-1.1,0-.52v-.62l.13-.61v-.57l0-.53.26-.83.48-.61.57-.09h.53l.48.13.4.66v1.8l-.14.61v.48l.05.31.61-.61.31-.53.31-.44.39-.39.35-.4.48-.3.48-.35.92-.58.53-.17.53-.22.57,0h.78l.84-.05.61.18.57.22.44.26.48.35.26.48.4.49.13.56.09.62v.52l.09.62-.09.92-.13.79v.61l-.27,1.1-.08,1.18-.14.53.09.61-.13.57,0,.61-.09.57.13.53.09.57-.05.52.18.62.39.43.75.18h.7l.44-.26.52-.27.35-.43,1.1-1.28.35-.48.26-.44.22-.48.31-.48.26-.48.35-.57.18-.53.52-.7.57-.35.49.22.39.31.18.74-.31.83-.18.57-.26.49-.26.52-.53,1-.39.44-.27.52-.3.44-.4.44-.26.52-.35.4-.48.39-.35.4-.53.35-.35.26-.57.31-1.45.35h-1.27Zm-11.62-7.32v.17l.27.14,0-.27Zm.31,2.8h-.26v.18l.26,0Zm.18-8.28h-.27l0,.31h.26Zm-.13,6.93-.18-.05v.26l.18.05Zm-.14,2.67,0,.17h.18v-.17Zm.18,1.4-.18,0,0,.22.18,0Zm0-12.27-.18,0,.05.18h.17Zm-.13,2.72-.05.17h.09l.09-.13Zm.17,2.93v-.26l-.22,0v.27Zm.66-5-.31,0-.08.35h.35Zm0,1.76v-.27l-.35-.08,0,.3Zm.39,2.1.36-.22,0-.26h-.39l-.13.31-.09.17-.26.13-.18.13,0,.31.39,0,.13-.18.09-.26Zm-.39,1.62h-.35l0,.31.39,0Zm-.35,1.54.22,0,0-.22-.26,0Zm.35,2.54h-.35v.35h.35Zm-.09-10.87h-.22v.22l.27-.05Zm.09,4h-.31v.39h.35Zm0,5.61h-.22v.17l.22.05Zm-.09,2.71-.13.05,0,.09.13,0Zm.7-13h-.18l-.08.31h.22Zm.13,1.36-.35-.05,0,.27.3,0Zm0,1.36-.39,0,.08.31h.31Zm0,1.75,0-.4-.44,0V499Zm-.31,6.44-.09,0v.14h.09Zm0-4.08v.27h.31v-.27Zm1-3.41-.35-.09v.35l.13.13h.31Zm0,1.27h-.35v.39h.31Zm.52-.35v-.22l-.26-.05V499Zm.53-.92v-.27h-.26V498Zm3.68-3.42h-.09l-.08.17.17.09Zm.53-.75-.05.22h.22v-.22Zm.61.79.22.35.18.13.21.18.09-.09-.22-.26-.08-.09-.14-.35Zm.83-.61h-.22v.22l.22,0Zm.75.52h-.35l.09.36.35,0Zm.66,1.1,0-.35-.31-.09,0,.35Zm0-1.71h-.26v.26h.26Zm-.22,6.84,0,.17.26,0v-.18Zm.18,1.36h-.22v.17h.22Zm-.22,1.35v.18l.13,0v-.14Zm0,1.58h.17v-.17h-.17Zm.22,1.14h-.18v.22h.22Zm.17,1.62-.09-.17-.26-.05.05.27.17.08.22.27.13.17.26.05,0-.31-.18,0Zm.53-12.88v-.4h-.35l0,.36Zm-.05,1h-.3v.3l.3,0Zm.05,2.85-.18-.09-.13.17.18.09Zm-.09-1.41h-.13l0,.22.13,0Zm.09,4-.22,0v.22l.17,0Zm-.22,4.12,0,.14h.13v-.14Zm.17-5.39-.13,0v.13l.09.05Zm.09,4.25v-.26h-.22v.31Zm.61-7.71-.21,0v.22l.21,0Zm0,2.59-.21,0v.31l.21-.05Zm-.17-1.23v.18l.17,0v-.18Zm.17,9.6h-.13l0,.13h.17Zm0-12.27h-.08l-.05.13.13,0ZM214.1,509v.26h.13l.05-.22Zm.84-.61-.14-.14-.13.18.18.09Zm0,1.4-.26-.05-.05.18.22,0Zm.66-.53,0-.35h-.26v.35Zm.57.48h-.13v.13h.13ZM217,509h-.35l.05.35.35,0Zm10.48,1.58-.49-.09-.7-.18-.44-.13-.48-.22-.61-.35-.88-.61-.44-.4-.39-.43-.44-.44-.26-.44-.26-.53-.14-.48-.22-.57-.13-.57-.17-.52-.13-.62-.09-.52-.09-.92v-.79l.09-.57,0-.62.13-.56.18-.62.13-.52.22-.53.13-.53.31-.52.66-1,.26-.44.35-.48L224,495l.39-.44.92-.7,1.36-.61.75-.27,2.36-.13.57.05,1.14.3,1.05.57.49.44.3.35.4.44.26.52.22.57,0,.53.13.66-.08.83-.14.88-.26.48-.13.57-.35.48-.35.44-.35.48-.35.4-.48.3-.57.35-1,.48-1.14.31-.52.05-.62.08L227,503.3l-.57-.09-.92-.27-.53-.17-.79-.09-.13.44.13.53v.61l.22.57.26.48.22.57.27.44.43.44.53.44.35.3,1.1.35L229,508l1.41-.09.57-.09,1.09-.39.57-.22,1.45-.79.39-.39.4-.35.83-.88.66-.92.87-1.45.26-.44.53-.7.61-.48.53.18.44.39,0,.66-.22.83-.22.48-.17.53-.26.52-.44.49-.31.48-.22.48-.35.48-.44.44-.35.44-.35.39-.44.4-1.4,1.09-1.36.75-.65.17-.53.18-.57.13-.53.13-2,.09H228Zm-5.75-8.33,0,.13.13.09,0-.18Zm.18,1.58v-.22h-.22v.22Zm0-2.94-.22.05v.26l.27,0Zm.53-.31.09-.3h-.31v.3Zm.09,1h-.27l0,.26.31.05Zm-.27,1.36,0,.3.31,0,0-.31Zm.22,1.4-.13-.09-.09.09.14.13Zm.09,1.53,0-.3-.3-.05-.05.31Zm0-6.92h-.18V499l.13,0Zm.3,4.64.05.31.35.05v-.4Zm.4,1.45h-.31l-.09.26.31,0Zm0-2.5,0-.26h-.31l.05.31Zm-.26-2.58.31-.05-.05-.35-.3,0Zm.22,6.61,0-.3-.26-.05,0,.27Zm0-8.28H223v.22h.26Zm0,2.68H223v.26l.26,0Zm.57-1.85v-.26l-.31,0,.05.3Zm.17,2.68-.08-.31h-.31l.09.4Zm-.13-3.9,0-.26h-.18v.26Zm-.22,2.36v.27h.27l0-.27Zm.22-3.94h-.13l0,.13.13.05Zm-.17,9.42v.13h.13v-.13Zm.22,1.58,0-.26-.22-.05,0,.27Zm.7-6.09v-.31l-.35.05v.3Zm-.09,5.13h-.18v.21l.22,0Zm.09,1.49v-.22l-.27,0v.22Zm.87-7.1.57.13.92.17.84,0,.48,0,.79-.17.83-.31.48-.39.44-.35.61-1,.18-1.67-.22-.57-.31-.48-.44-.35-.39-.26-.66-.13-.83,0-.88.17-.61.18-.39.26-.4.31-.74.66-.49.7-.35.52-.26.53-.13.53v.7l.39.57Zm-.52,6.53.17-.05v-.22l-.17.05Zm0-5.75v.36h.26l.05-.31Zm.31,6.71H225v.31l.26,0Zm.48-.44,0-.09-.05.09.09,0Zm-.09,1.18v.18h.13v-.18Zm.79-.65h-.22v.17h.18Zm0,1.36-.09.17h.22v-.17Zm.52-15.52v.18l.14,0,0-.17Zm.31,14.86-.26-.05-.05.31.27.05Zm0-6.62H227l.09.13.09,0Zm.65,7.54,0-.22-.22,0-.05.21Zm.44-15.73,0,.17h.22v-.13Zm.18,8.15h-.18l0,.13.22,0Zm.08,6.66-.21,0,0,.22h.22Zm1.32-6.75-.18,0,0,.17.18.05Zm0-8.11h-.17l-.05.22h.22Zm-.08,14.81-.14.05.05.13.13,0Zm.57-7.27v.18h.17v-.18Zm.17,8.11v-.09l-.09,0,0,.13Zm.61-15.65-.26.05,0,.17h.21ZM231,509l0,.22.22.05,0-.27Zm.08-8,.18,0,0-.13-.17,0Zm.88-6.27h-.22l0,.22.22,0Zm.57.74h-.26v.27h.26Zm0,1.36h-.18l0,.22h.22Zm0,2.72h-.26v.26h.22Zm0-1.31h-.18v.17h.13Zm0,10.86V509l-.18-.05v.22Zm.35-.78.09.17h.21l0-.22Zm.35-12.19H233l.09.27h.22Zm-.05,2.76-.17,0,0,.17h.17Zm-.17-1.35v.17h.17v-.22Zm.74-.49v-.17h-.17v.17Zm.14,10.65,0-.22h-.26l-.05.22Zm1.27-.13-.14,0,0,.14.18,0Zm.48-.61v.13l.17-.05,0-.13Zm.79-.84h-.13v.14l.13,0Zm.87-2-.17.05v.17l.17,0Zm5,6.36-.53-.27-.92-.74-.39-.48-.18-.49v-.48l.05-.39.17-.44.4-.48.52-.27.57.27.4.48.3.39.35.35.84.18.74,0,.57-.22.4-.52.26-.7.09-.53.3-.52.53-.62,0-.66-.13-.56,0-.62-.26-.48-.22-.53-.31-.52-.57-1.05-1-1.54-.22-.48-.44-.57-.22-.52-.35-.31-.48.09-.48.39-1.1,1.88-.17.49-.27.57-.26.52-.31.48-.17.44-.53.7-.57.35-.48-.17-.44-.35-.09-.79.22-.75.31-.52.18-.48.3-.57.18-.49.35-.52.22-.48.35-.53.39-.44.27-.52.39-.4.31-.44.43-.35.4-.7.35-.79.09-.57.17-.57.35-.43.4-.49.52-.3.57-.09H245l.61.13.4.4.22.43.13.53-.09.61-.18.57-.3.48-.31.84.09.79.44,1,.61.7.48.66.53,1,.35.53.44,1,.3.53.22.48.18.57.31.48.08.53.05.92.17.83-.13.57.18.52.52.05.48-.18.49-.35.39-.44.26-.39.4-.48.26-.53.39-.52.31-.49.35-.57.7-1.31.57-.44.62.22.39.39.05.75-.14.79-.3.48-.35.53-.22.43-.31.49-.31.52-.17.4-.7.92-.44.44-.88.74-.44.31-.35.3-.57.27-.43.13-2,.39-.61.31-.57.31-.35.26-.88.35-1.4.26h-.79l-.79-.08Zm-1.18-2.19,0-.14-.13,0,0,.13Zm.57-11.71v.27l.22,0,0-.22Zm.22,12.14h-.18V509l.22,0Zm.61-12.84-.26.05,0,.26.26,0Zm0,13.54-.22,0,0,.22.22.09Zm-.22-14.68.05.14.13-.05-.05-.13Zm1,.88,0-.31-.3.05.08.3Zm-.31-1.66,0,.35h.31l0-.35Zm0,2.67v.22h.22v-.22Zm.22,12.22-.17-.08,0,.22h.18Zm.71-15.51-.36,0,0,.39.4.05Zm0,2.59h-.31l.09.35.31-.05Zm.09-1v-.35l-.35,0,0,.35ZM244,509.65l0-.13h-.08v.13Zm.74-15.29V494l-.39.09v.35Zm.35-2.15-.17.26-.13.13-.4.13.18.35.39-.21.13-.22.09-.18.09-.26Zm-.35,3.11-.35,0v.4l.4-.05Zm0,1.4-.3,0,0,.35h.31Zm-.22,1.32v.17l.13.05.05-.18Zm.31,11-.09-.18h-.22l.05.22.17,0,.22.14.09.3.31.09-.09-.31-.26-.13Zm.22-15.69v.26l.26,0v-.26Zm.26,1.44-.22,0v.18l.18,0Zm-.13,2.63,0,.18.13,0,.09-.13Zm.22,1.54,0-.22-.22-.05,0,.22Zm.7,10.12,0-.26-.22,0,0,.22Zm-.22-9.73v.18l.18,0v-.18Zm.79,10.17-.13-.09-.13.13.17.13Zm-.09-9.47h-.13l0,.22.17,0Zm.13,8-.26.09,0,.26.26,0Zm-.21-1.05.21,0v-.22l-.21,0Zm.26-5.57-.18,0,0,.18.17,0Zm.66,4.69h-.31l-.05.27.31,0Zm-.31,1.23v.35l.39,0,0-.36Zm.35,1.71,0-.31h-.31l0,.31Zm-.26-7.06v.18h.17l0-.18Zm.52,6.14.05.22H248l0-.26Zm.4-2.5-.09-.26h-.26l0,.31Zm-.09-2.89-.22,0V503l.22,0Zm0,1.27-.26,0v.27H248Zm0,2.76h-.27V507h.27Zm.39-.74,0,.26.26,0,0-.26Zm.26,1.31h-.3l0,.26h.26Zm-.08-2.54h-.18V505h.18Zm-.14-1.18h.18v-.14l-.18,0Zm.84,3.11-.31,0,0,.31.36-.05Zm-.05,1.62.05-.18-.22-.08-.05.22Zm.44-1v.27l.35,0-.08-.31Zm1,.62h-.27v.26l.22,0Zm.52-.57,0,.13.13,0v-.13Zm7.5,3.07-.53-.27-.92-.74-.39-.48-.18-.49v-.48l0-.39.18-.44.39-.48.53-.27.57.27.39.48.31.39.35.35.83.18.75,0,.57-.22.39-.52.27-.7.08-.53.31-.52.53-.62,0-.66-.13-.56-.05-.62-.26-.48-.22-.53-.3-.52-.57-1.05-1.06-1.54-.22-.48-.43-.57-.22-.52-.35-.31-.49.09-.48.39-1.09,1.88-.18.49-.26.57-.26.52-.31.48-.18.44-.52.7-.57.35-.48-.17-.44-.35-.09-.79.22-.75.31-.52.17-.48.31-.57.17-.49.35-.52.22-.48.35-.53.4-.44.26-.52.4-.4.3-.44.44-.35.4-.7.35-.79.08-.57.18-.57.35-.43.39-.49.53-.3.57-.09h.53l.61.13.39.4.22.43.13.53-.08.61-.18.57-.31.48-.3.84.09.79.43,1,.62.7.48.66.52,1,.36.53.43,1,.31.53.22.48.17.57.31.48.09.53,0,.92.18.83L266,506l.17.52.53.05.48-.18.48-.35.4-.44.26-.39.39-.48.27-.53.39-.52.31-.49.35-.57.7-1.31.57-.44.61.22.4.39,0,.75-.13.79-.31.48-.35.53-.22.43-.3.49-.31.52-.18.4-.7.92-.43.44-.88.74-.44.31-.35.3-.57.27-.44.13-2,.39-.62.31-.57.31-.35.26-.87.35-1.41.26h-.79l-.78-.08Zm-1.19-2.19.05-.14-.13,0-.05.13Zm.57-11.71v.27l.22,0,.05-.22Zm.22,12.14h-.17V509l.22,0Zm.61-12.84-.26.05.05.26.26,0Zm.05,13.54-.22,0,0,.22.21.09Zm-.22-14.68,0,.14.13-.05,0-.13Zm1,.88,0-.31-.31.05.09.3Zm-.3-1.66,0,.35h.31l0-.35Zm0,2.67v.22h.22v-.22Zm.22,12.22-.18-.08,0,.22h.18Zm.7-15.51-.35,0,0,.39.39.05Zm0,2.59H260l.09.35.3-.05Zm.08-1v-.35l-.35,0,.05.35Zm-.13,14.68,0-.13h-.09v.13Zm.75-15.29V494l-.4.09v.35Zm.35-2.15-.18.26-.13.13-.39.13.17.35.4-.21.13-.22.09-.18.08-.26Zm-.35,3.11-.35,0v.4l.39-.05Zm0,1.4-.31,0,0,.35h.3Zm-.22,1.32v.17l.13.05,0-.18Zm.31,11-.09-.18h-.22l0,.22.18,0,.22.14.09.3.3.09-.09-.31-.26-.13Zm.22-15.69v.26l.26,0v-.26Zm.26,1.44-.22,0v.18l.17,0Zm-.13,2.63-.05.18.13,0,.09-.13Zm.22,1.54,0-.22-.22-.05,0,.22Zm.7,10.12,0-.26-.22,0,.05.22Zm-.22-9.73v.18l.17,0v-.18Zm.79,10.17-.14-.09-.13.13.18.13Zm-.09-9.47h-.13l0,.22.18,0Zm.13,8-.26.09,0,.26.26,0Zm-.22-1.05.22,0v-.22l-.22,0Zm.26-5.57-.17,0-.05.18.18,0Zm.66,4.69h-.3l-.05.27.31,0Zm-.3,1.23v.35l.39,0,0-.36Zm.35,1.71-.05-.31h-.3l0,.31Zm-.27-7.06v.18h.18l-.05-.18Zm.53,6.14,0,.22h.27l-.05-.26Zm.39-2.5-.08-.26h-.27l.05.31Zm-.08-2.89-.22,0V503l.22,0Zm0,1.27-.26,0v.27h.26Zm0,2.76h-.26V507h.26Zm.4-.74-.05.26.27,0,0-.26Zm.26,1.31h-.31l.05.26h.26Zm-.09-2.54h-.17V505H265Zm-.13-1.18H265v-.14l-.18,0Zm.83,3.11-.3,0,0,.31.35-.05Zm0,1.62,0-.18-.22-.08,0,.22Zm.44-1v.27l.35,0-.09-.31Zm1,.62h-.26v.26l.22,0Zm.53-.57-.05.13.14,0v-.13Zm17.53,3.15-.57,0-.49-.13-.3-.7-.13-.84-.05-.48.09-.61.09-.57,0-.53,0-.61.13-.57,0-1.71.09-.52,0-.57,0-.57,0-1.14,0-.57-.09-.57.13-.57v-.57l.05-.62-.05-.52,0-1.14.13-.48-.13-1.19v-1.18l0-.53L284,492l0-.53-.13-.61,0-.57-.13-.84-.17-.79-.14-.61-.13-.48,0-.57-.13-.61-.22-.49-.35-1.05-.18-.57-.22-.52-.26-.49-.26-.52-.4-.44-.52-.53-.92-.78-.31-.66v-.62l.35-.48.53-.26.74.09.84.39.35.4.43.43.4.36.35.52.66.92.3.57.18.48.17.53.22.52.18.57.26.53.05.53.08.61.18.79.17.88v.61l0,.52.17,1.14.05,1.8,0,.31.13-.31v-.53l.09-.61.26-1.14.4-1,.13-.57.17-.57.22-.48.09-.57.22-.53.61-1,.18-.52.39-.48.44-.7.48-.66.4-.53.3-.39.49-.35.48-.4,1.44-.83.44-.31.57-.08.48-.22.84-.18.83,0,1.14-.05.61.09.53.13.52.18.57.22.49.3.43.36.35.3.4.4.31.48.52,1,0,.57.17.52,0,.57v1.67l-.13.48-.13.57-.26.52-.4,1.1-.35.39-.48.75-.48.66-.44.39-.48.31-1,.74-.4.27-.57.35-.48.22-.22.26.53.26.92.13.43.18.88.26.83.35.53.35.53.27.43.35.35.43.49.44.35.4.39.48.18.44.35.52.17.57.18.48.13.62.31,1.66v.62l-.09.61-.22,1.14-.13.53-.22.52-.13.48-.35.57-.53,1-.31.44-.48.39-.39.49-.53.57-.74.48-.49.3-.48.27-.57.17-.57.22-.52.18-.57.08-.53.09-.57,0-.66,0h-.52l-.57-.09-.66,0-1.05-.26-.57-.22-1.14-.35-.48-.27-.44-.3-.44-.22-.7-.57-.35-.66.13-.57.22-.48.31-.44.7.13.79.31.52.39,1,.48.53.22.57.18.57.09.57.13.52,0h.53l.66,0,1-.26.66-.14.48-.26,1.14-.83.66-.61.35-.4.57-1,.31-.48.13-.53.17-.61.09-.57,0-.48-.08-.57v-.57l-.4-1.71-.3-.48-.27-.44-.83-.92-.48-.31-.4-.39-.48-.31-1.18-.44-.53-.22-.87-.17-.66-.09-1.45-.09-.83-.17-.79-.31-.31-.44-.08-.57.17-.48.57-.44,1.84-.87,1.58-.92,1.75-1.49.31-.53.39-.44.31-.48.79-1.53,0-.62.09-.52,0-.62-.18-.57,0-.61-.35-.48-.31-.4-.39-.35-.53-.21-.66-.09h-.83l-.74,0-.53.09-.57.26-.53.13-.48.31-.39.26-.48.35-1,1-.48.7-.88,1.36-.3.52-.18.53-.31.57-.13.48-.22.57-.17.57-.26.53-.18.52-.13.53-.09.57-.22,1.18-.22.53-.17.61v.57l-.18.53-.26,1.7v.58l-.26,1.22v.48l-.09.57L287,501l-.21,1.23v.53l-.09.57-.05.57-.13.61-.13,2.23-.09.66-.13,1.1.09.52-.22.83-.44.66Zm-3.55-29.8h-.13V481h.13Zm.7.71h-.18l.05.17.17,0Zm.79.52h-.31v.31H283Zm.52,2.06h-.3v.26h.3Zm0-1.05.05-.26h-.27l0,.3Zm.44,1.71V485h.18v-.22Zm.13-1.23,0,.13.13,0,0-.14Zm.4,3.11,0,.27.09.13.26,0-.09-.39Zm.35,5.52-.22,0-.05.31.22-.09Zm-.18,5.57.18,0,0-.21-.17-.05Zm.13,9.12h-.13V507h.13Zm.09-21.17,0-.09h-.13l0,.09Zm0,2.37-.17,0v.26l.21,0Zm0,1.44h-.17v.22H285Zm0,1.36h-.13V491h.13Zm.52,2.32.18-.09.17-.26-.35-.22-.22.4-.17.22-.26.26v.26l.3,0,.13-.31Zm-.44,1.62-.21,0V495l.21,0Zm0,1.58v-.22l-.17,0v.22Zm0,2.5h-.13V499h.13Zm-.13,4v.18L285,503l-.08-.17Zm.13,1.45,0-.13-.17-.05v.13Zm.08,1.18-.21,0v.26H285Zm0-3.94h-.17v.17H285Zm.71-7.58-.4,0,.05.39.35,0Zm0-2.63-.31-.05,0,.26.3.05Zm0,5.34-.35,0,.08.35.31-.05Zm-.05-1.05.05-.22-.27,0,0,.26Zm-.17,2.5-.09.22h.22l0-.18Zm-.09,6.66v.26l.31,0-.05-.26Zm.31-5.13v-.26l-.27-.05v.27Zm0,2.41h-.31l.05.31h.26Zm-.09,1.45-.17-.09-.05.18.18.08Zm0,2.63h-.22v.17h.22Zm0-16-.17,0v.22h.17Zm0,10.61-.13,0V501h.17Zm.66.7-.27,0,0,.27.22-.05Zm0,2.72-.18-.09-.09.22.22,0Zm.08-10.57,0-.3-.26.08,0,.31Zm0,3.82h-.26l0,.26.26,0Zm.05-2.81-.27,0,0,.3h.31Zm-.13,8.07h-.18v.21h.18Zm.17-6.45.53-.52,0-.35-.35,0-.13.18-.26.26-.09.13,0,.35Zm-.09,2.55-.17-.05,0,.22.22,0Zm.09,1.31-.26,0,0,.3.27.05ZM287,494l-.35,0,0,.31h.35Zm-.35,5.56.18,0v-.13l-.14,0Zm.35-1.45-.26,0-.05.26.22.05Zm-.09-1.05v-.17h-.17v.17Zm.49-3.64,0,.27h.22v-.22Zm.74-4.55,0,.09h.09l0-.09Zm.79-1.89v-.17l-.09-.05,0,.18Zm0,1.14h-.13v.18h.13Zm1.27-3.81,0-.09-.13,0v.13Zm.57-.83,0,.13.13-.05,0-.13Zm.79,24.63h-.22l0,.22.22,0Zm.66-25.68,0-.18-.18,0v.22Zm0,26.38h-.09l-.05.13.14,0Zm.78-.62h-.17l-.09.18h.22Zm.57.92V509h-.17v.17Zm.71-15.6-.22,0-.05.17.22.09Zm-.22,16v.13l.13,0v-.13Zm.26-28.09h-.18v.18h.18Zm.39,11.31V493H295v-.26Zm.31-12-.26-.05V481H295Zm.7,12.49-.39.17,0,.35.35.05.13-.4.13-.22.27-.09v-.21l-.27,0-.08.22Zm-.13-11.57v-.18h-.22l0,.18Zm0-1.32.05-.17-.22-.05-.05.22Zm0,11.88-.22,0v.22l.22,0Zm.05,17.44v-.18h-.18v.18Zm.66-15.29-.05-.27h-.22v.27Zm0-13.33v-.22h-.22l0,.27Zm.56-1-.3,0,.09.31.26-.09Zm0,13.41-.21,0,0,.18h.22Zm.75-12.45,0-.26h-.3V481Zm-.09,13.15-.17,0v.22l.22,0Zm0,14.64h-.22V509h.22Zm.48-27.3,0-.09-.09-.09,0,.13Zm.13,28-.13,0-.05.22h.14Zm0-29.27-.09,0v.13h0Zm.08,10.69-.13,0,0,.13.13.09Zm0,3.9-.13,0V495l.17,0Zm-.13,13.41v.22l.17.05.05-.22Zm1-27.52-.35.05-.09.35L299,481ZM299,508.86l-.22,0,0,.22.21,0Zm.57-27.52-.27.09,0,.22h.22Zm.57,14-.18-.17-.13-.18-.17-.13-.27,0,.13.3.09.14.18.13.13.13.26.13Zm.17-13.27-.26,0,0,.31h.26Zm-.22-1.14,0,.13.13,0,.09-.13Zm.22,7.84-.26,0v.3h.31ZM300,507.5l.09.27.26,0,0-.31Zm.31-20.11-.22,0-.05.26.27,0Zm.65-.62-.3.05,0,.3h.31Zm-.13,21.39-.17-.09v.18l.13.09Zm.09-23.88,0-.18h-.26v.18Zm0,11.87h-.26v.27l.26-.05Zm.05,10.61-.26-.05-.05.27H301Zm-.26-23.93V483H301v-.18Zm0,5.35v.22H301l0-.22Zm.78-4.69h-.21v.22h.21Zm.05,22.7h-.26v.3l.26,0Zm-.09,1.36-.13-.05,0,.13.17.05Zm.09-22.84-.22.05V485l.22-.05Zm-.13,2.72-.09,0v.14l.13-.05Zm-.09,9.42,0,.13h.13l0-.13Zm.88.66-.31.13-.13.13-.13.18-.14.22.09,0,.26-.13.4-.26Zm-.18,7.93v.27l.26,0v-.31Zm0,1.45,0,.13.14,0,0-.13Zm.26-8.11h-.17V499h.17Zm.57,3.38-.3.13-.18.35,0,.26.13-.13.35-.26Zm-.26,1.53.26.09v-.31l-.26,0Zm.31-5.35,0-.26h-.26l-.05.26Zm-.27,1.14v.27h.22l.05-.31Zm.31,5.31h-.31v.26H303Zm0-4h-.3V501l.26,0Zm.66,3.25-.26,0-.13.31h.35Zm-.09-4.91.05-.18-.26-.08-.05.21Zm.05,1.05-.26,0-.05.27.26-.05Zm-.05,1.31-.26.05v.26l.31,0Zm.05,1.23h-.31V503h.31Zm10.56,7.85-.48-.09-.7-.18-.44-.13-.48-.22-.62-.35-.87-.61-.44-.4-.4-.43-.43-.44-.27-.44-.26-.53-.13-.48-.22-.57-.13-.57-.18-.52-.13-.62-.09-.52-.09-.92v-.79l.09-.57,0-.62.13-.56.17-.62.13-.52.22-.53.13-.53.31-.52.66-1,.26-.44.35-.48.44-.35.39-.44.93-.7,1.35-.61.75-.27,2.37-.13.56.05,1.14.3,1.06.57.48.44.31.35.39.44.26.52.22.57.05.53.13.66-.09.83L321,499l-.27.48-.13.57-.35.48-.35.44-.35.48-.35.4-.48.3-.57.35-1,.48-1.13.31-.53.05-.61.08-1.1-.08-.57-.09-.92-.27-.52-.17-.79-.09-.14.44.14.53v.61l.21.57.27.48.22.57.26.44.44.44.52.44.36.3,1.09.35,1.45.18,1.4-.09.57-.09,1.09-.39.57-.22,1.45-.79.39-.39.4-.35.83-.88.66-.92.88-1.45.26-.44.52-.7.62-.48.52.18.44.39.05.66-.22.83-.22.48-.18.53-.26.52-.44.49-.31.48-.21.48-.36.48-.43.44-.35.44-.36.39-.43.4-1.41,1.09-1.35.75-.66.17-.53.18-.57.13-.52.13-2,.09h-.93Zm-5.74-8.33-.05.13.14.09,0-.18Zm.17,1.58v-.22h-.22v.22Zm.05-2.94-.22.05v.26l.26,0Zm.52-.31.09-.3H309v.3Zm.09,1h-.26l-.05.26.31.05Zm-.26,1.36-.05.3.31,0,.05-.31Zm.22,1.4-.13-.09-.09.09.13.13Zm.09,1.53,0-.3-.31-.05,0,.31Zm-.05-6.92h-.17V499l.13,0Zm.31,4.64,0,.31.35.05v-.4ZM310,505h-.3l-.09.26.3,0Zm.05-2.5-.05-.26h-.3l0,.31Zm-.27-2.58.31-.05,0-.35-.31,0Zm.22,6.61.05-.3-.27-.05,0,.27Zm0-8.28h-.22v.22h.27Zm0,2.68h-.22v.26l.27,0Zm.57-1.85v-.26l-.31,0,0,.3Zm.18,2.68-.09-.31h-.31l.09.4Zm-.13-3.9,0-.26h-.17v.26Zm-.22,2.36v.27h.26l0-.27Zm.22-3.94h-.14l0,.13.13.05Zm-.18,9.42v.13h.13v-.13Zm.22,1.58,0-.26-.22-.05,0,.27Zm.7-6.09v-.31l-.35.05v.3Zm-.09,5.13h-.17v.21l.22,0Zm.09,1.49v-.22l-.26,0v.22Zm.88-7.1.57.13.92.17.83,0,.48,0,.79-.17.83-.31.48-.39.44-.35.62-1,.17-1.67-.22-.57-.3-.48-.44-.35-.4-.26-.65-.13-.84,0-.87.17-.62.18-.39.26-.39.31-.75.66-.48.7-.35.52-.27.53-.13.53v.7l.4.57Zm-.53,6.53.18-.05v-.22l-.18.05Zm.05-5.75v.36h.26l0-.31Zm.3,6.71h-.3v.31l.26,0Zm.48-.44,0-.09,0,.09.08,0Zm-.08,1.18v.18h.13v-.18Zm.79-.65h-.22v.17h.17Zm0,1.36-.09.17h.22v-.17Zm.53-15.52v.18l.13,0,0-.17Zm.3,14.86-.26-.05,0,.31.26.05Zm0-6.62h-.18l.09.13.09,0Zm.66,7.54,0-.22-.22,0,0,.21Zm.44-15.73-.05.17h.22v-.13Zm.17,8.15h-.17l-.05.13.22,0Zm.09,6.66-.22,0,0,.22h.22Zm1.31-6.75-.17,0,0,.17.18.05Zm.05-8.11h-.18l0,.22h.22Zm-.09,14.81-.13.05,0,.13.13,0Zm.57-7.27v.18h.17v-.18Zm.17,8.11v-.09l-.08,0-.05.13Zm.62-15.65-.26.05,0,.17H318Zm-.22,14.9,0,.22.21.05L318,509Zm.09-8,.17,0,.05-.13-.18,0Zm.87-6.27h-.22l0,.22.22,0Zm.57.74h-.26v.27h.26Zm0,1.36h-.17l0,.22h.22Zm.05,2.72h-.27v.26h.22Zm0-1.31h-.18v.17h.14Zm0,10.86V509l-.18-.05v.22Zm.35-.78.09.17h.22l-.05-.22Zm.35-12.19h-.31l.09.27h.22Zm0,2.76-.18,0,0,.17H320Zm-.18-1.35v.17h.18v-.22Zm.75-.49v-.17h-.18v.17Zm.13,10.65,0-.22h-.26l0,.22Zm1.27-.13-.13,0-.05.14.18,0Zm.48-.61v.13l.18-.05-.05-.13Zm.79-.84h-.13v.14l.13,0Zm.88-2-.18.05v.17l.18,0Zm20.24-3.11.44.31.09.74-.26.83-.31.49-.22.52-.26.53-.35.57-.18.48-.66,1-.35.48-.21.44-.4.44-.44.48-.26.48-.39.44-.31.44-.48.44-.35.39-.92.74-.44.62-.22.83-.13.53-.09.52-.13.57-.05.57-.7,2.15-.3.48-.53,1-.57,1-1.05.88-.66.48-1.09.35-.53.13-.74.05-.93-.09-.52-.13-.57-.26-.4-.27-.43-.43-.57-1-.13-.52,0-.53v-.53l.44-1.36.74-1.27.35-.39.4-.44,1-.66.44-.35.53-.35.43-.3.57-.31,1.49-.88.49-.22.61-.61.31-.7.13-.53,0-.83.09-.88v-.57l-.22-.26-.22.13-.88.84-.43.35-.49.35-.44.3-.52.31-.57.13-.61.18-.44.08-.88.09-.87.05-.57-.14-.57-.21-.4-.18-.52-.31-.49-.39-.39-.35-.31-.48-.39-.4-.31-.48-.13-.53-.22-.57-.35-1.18-.13-1.75.13-.62,0-.57.18-1.13.22-.66.48-1.58.22-.57.39-.53.22-.43.7-1,.84-.83.48-.39.48-.27.48-.35.48-.26.62-.18,1.09-.22,1.8-.17.44,0,.66.05,2.27.65.75.36,1.23.7.35.7.17.74-.26,4-.13.53,0,1.18-.09.57-.13.52-.08.57,0,.57-.09.57,0,.57v.53l-.27,1.66V508l.14.44.39-.13.35-.44.4-.52.39-.44.26-.48.35-.44.31-.53.61-1,.35-.48.18-.48.26-.53.4-.52.17-.53.48-.65.62-.4Zm-19.19.7.13-.22.18-.13.22-.17.17-.27-.17-.22-.22.22-.13.18-.14.13-.13.17-.09.27Zm0,1.14h-.22v.22l.22,0Zm1.19-1.36h-.14l-.26.22-.13.18-.13.08-.22.27.26.26.27-.31.21-.17.27-.26Zm-.4,3.6-.26-.31-.22.26.35.18.18.17.08.31.4,0,.22-.35.08-.17.22-.27-.17-.13-.22.27-.18.08-.22,0Zm-.17-1.71-.27.08.05.27h.26Zm.13,2.89v-.18h-.22v.18Zm.3-3.42,0,.35h.31V503Zm.27-3.94-.22,0-.05.22.22.05Zm-.27,1.22v.22h.14v-.22Zm.27,4h-.27v.26h.27Zm0,2.85-.05-.22h-.22l.05.22Zm.66-8.9-.31.05v.35l.31-.09Zm0,9.65-.05-.27-.26.05.13.22Zm0-1.63-.27.05v.26h.35Zm5,.62.66-.4.66-.57.48-.39.4-.48.3-.44.27-.57.26-.48.44-1.05.22-.62.08-.52.05-.49.09-.65.21-1.1,0-.53,0-.61v-.61l-.3-.75-.44-.52-.53-.18-.48-.26-.57-.09-1.1-.09-.57.09-.78.22-.79.26-.4.27-.39.39-.48.35-.35.44-.4.39-.31.53-.3.44-.27.79-.52,1.36,0,.56-.17.57,0,.53,0,.61.13.53,0,.57.44,1.05.22.57.35.4,1,.57.44.08.92.09.92-.13Zm-4.68,0,0,.26.31.05,0-.31Zm0,1.32,0,.26h.26l0-.26Zm0-11.92,0,.22.22-.09,0-.13Zm.26,1.62v-.26h-.26v.26Zm.35-2.06h.22l0-.22h-.22Zm.05,12h.26l0-.27h-.27Zm.17-10.83h-.17v.18h.22Zm.75,11.31H329l0,.26.31,0Zm-.27,9.2v.31l.31,0v-.26Zm.31-21.21-.17,0-.09.13.22.09Zm0,19.9H329v.26h.26Zm.09,2.93-.05-.26H329v.26Zm0-11.7.22.35h.26v-.26l-.35-.22Zm.44,9.38h-.27V517h.27Zm0-21v-.13h-.18l0,.13Zm.08,20.11v-.39l-.3,0v.35Zm.09,2.28-.35,0,0,.26.26,0Zm0,1.53-.09-.3h-.3l0,.3ZM329.84,509v-.18h-.22l.09.18Zm.31,11.43.26,0,.18-.09v-.26l-.31-.13-.13.13-.09.26Zm.13-1.7,0,.17.26.13,0-.3Zm.22-10.52-.22-.09v.22l.22,0Zm.09,6.48-.22,0-.09.22.22.09Zm-.09,1.58,0-.17-.26-.09v.26Zm.66-22.13-.36.18-.17.13-.13.17-.18.31.18.17.17-.26.18-.13.17-.09.27-.17Zm1.62,24.45.57-.35.65-.92.27-.52.3-.49.09-.56.48-1.14.05-.53-.13-.48-.66.13-.75.44-.3.3-.4.27-1.75,1.57-.53,1.14,0,.57.13.57.66.31.92,0Zm-1.71-4.47-.13.05v.13l.17,0Zm.13,5.31-.26-.05v.31h.22Zm.66-11.05v-.26l-.27.09v.17Zm-.13-13.49-.09-.05V495h.09Zm.21,18.88-.08-.22-.18.18.22.09.22.26.09.09h.22l-.05-.18-.22-.09Zm-.08,6.4-.18,0v.17l.18,0ZM333,520l-.13-.13-.27-.35-.26-.05-.09.13.35.35.13.18.27.13Zm-.49-25.59-.08-.14-.09.18.13,0Zm0,13.23-.08-.09-.09.13.13.14Zm.75,11.26-.22,0,.13.17.09,0Zm.57.79v-.26h-.26l-.05.26Zm.09-25.33h-.22v.13h.13Zm-.22,18.45V513h.22l-.09-.22Zm.13-5.3-.09.09.18-.05.08-.17.27-.13.08-.14,0-.35-.31-.17-.08-.13h-.18l.09.08.17.05.09.31v.21l-.09.27Zm.66,11.35-.27,0,0,.26h.26Zm.08-6.44v-.31l-.3,0,0,.35Zm-.08-6.71-.14,0v.09l.14,0Zm.65,7.45.09-.3h-.35l0,.26Zm0-18.89-.26.09.09.18.17-.05Zm.09,12.19v-.35l-.35.08v.27Zm0,5.08h-.35v.31h.26Zm0-6.62-.22,0,0,.17.26.09Zm-.13,12,0-.13H335v.13Zm-.09,1.32v.13l.13,0,0-.09Zm.79-12.45v-.3l-.31-.05.05.31Zm-.26,6.27,0,.31h.31l-.05-.27Zm.3,4.12-.26,0,0,.26.26,0Zm-.26-5h.26l.05-.26-.26-.09Zm.35,2.28h-.3l-.05.35h.31Zm0-9v-.22h-.26v.22Zm-.05,10.34h-.21V515l.21,0Zm1.28-2.67-.14-.13-.13-.18-.13-.08-.13-.18-.31,0-.17.26.26.26.18.09.13.22.26.22.26-.18Zm-1,2.06,0,.31.35,0v-.35Zm.31-7.67.09-.31h-.35l-.05.31Zm.13,6.31h-.44v.35l.4,0Zm0-5v-.27l-.22,0-.13.26Zm0,.87-.18.05-.17.35.35.13.13-.35.17-.27.31-.17,0-.31h-.3l-.18.35Zm0,1.54h-.39l.08.3h.31Zm-.31-7.89v.22l.18,0,.09-.26Zm.31,2.54h-.31v.31h.31Zm-.18,10.69h-.13v.22l.13,0Zm-.08-12v.18h.22v-.18Zm.79,2.42.13-.14v-.35l-.35,0-.09.09v.39Zm-.31,3.5.09.31h.26l-.09-.31Zm.31,3.94-.27,0,0,.26h.31Zm0-6.57h-.27v.26h.27Zm0-6.57h-.26l0,.26h.26Zm0,1.49v-.18h-.22v.18Zm-.22,1.09,0,.31h.31v-.35Zm.22,1.32h-.18l0,.22h.22Zm.13,6.92-.05-.35-.3.05v.3ZM337.16,495h-.22v.22h.22Zm0,2.59H337l0,.17h.18Zm0,1.4H337l0,.13.18,0Zm.08-2.76h-.13l-.09.22h.22Zm.53-.53-.13,0-.09.17h.22Zm.17,1.14h-.3l-.09.31h.35Zm0,5.17-.39.22.22.26.26-.22.05-.17.17-.22,0-.13-.08.09Zm-.17,2.94h-.22v.22h.22Zm0,1.22h-.17l-.09.18h.22Zm.09,3v-.31l-.35,0v.3Zm0,.92-.35,0v.31h.39Zm0-11.66v-.26h-.26v.26Zm-.22,2.72h.26l0-.26h-.26Zm.13,2.45h-.17v.27h.17Zm-.13-3.94v.17h.13v-.17Zm.13,11.87,0,0-.09.09h.13Zm.75-2.1-.35,0,.08.35.31-.08Zm-.09-13.1h-.18l0,.17h.22Zm0,1.31-.18,0v.22h.22Zm.61,12.54-.22-.05,0,.26H339Zm0-1.14.09-.22h-.27v.26Zm.74-.75-.13,0-.13.17h.22Zm-.26,1.27,0,.09.09,0-.09-.14Zm5.78.4-.3-.35-.44-.35-.22-.44-.39-.4-.22-.52-.14-.49-.17-.56-.13-1.1-.13-.61V504l.08-.57-.13-.66v-.53l.13-1.22v-.57l.18-.62,0-.52v-.66l.05-1.18.26-1.23.13-1.14.44-1.4.48-.62.57-.21.53.08.57.27.26.7,0,.87,0,.57-.17.57-.27,1.71v.57l-.26,1.14.09.62-.14.52.05.61-.22,1.1,0,.57-.08.57.08,1.14v.61l.13.53.05.57.26.61.22.53.48.35.66.17h.88l1-.48.4-.26.78-.79.35-.48.4-.4.61-1,.31-.53.44-1,1-1.75.74-.35.4.22.39.35.17.79-.3.7-.26.53-.14.52-.22.48-.3.49-.26.52-.31.44-.22.57-.31.44-.35.44-.35.48-.44.39-.26.44-.35.4-.53.35-.48.35L350,510l-.44.26-1.09.22-.93,0-1.27-.09Zm-1-9.12-.26,0-.13,0-.05.26.09,0,.26,0,.09-.09Zm-.09,4.08H344l0,.22,0,0,.26,0Zm.05-6.84h-.22l-.09.09v.22h.26l.05-.05Zm0,5.48-.22-.05-.05.22.22,0Zm-.27,2.8.05.22.22.05v-.22Zm.44-6.57-.09-.22,0-.13h-.22l0,.22,0,.09.09.08.22.05.09.13v.13l0,.13,0,.09.13.09.09.08.13.05h.13l.14.17.08.18.22,0,0-.14-.22-.08-.13-.18-.05-.09,0-.13-.26-.26-.13,0Zm-.13,2.37h-.22l0,.26h.26Zm-.22,5.47,0,.14.18,0,0-.17Zm.22-10.82h-.09l0,.13.13,0Zm.35-6.44-.26-.4-.09-.92.18-.79.3-.43.44-.4.79-.13.88.13.48.4.39.43.13.88-.17.83-.35.49-.57.3-.75.18-.83-.18Zm.57,11.74V502l-.09-.26-.09-.09,0-.13-.17-.13h-.14l-.17.17v.09l.13.26.09.09.26.09Zm-.48,4.78-.18.17.05.27.26-.05,0-.13v-.22l.09-.13h.13l.18,0,.13-.18,0-.13-.13-.09-.17.18-.14.09-.08.08Zm-.13-9.51v.31l.17,0,.13,0v-.22l-.08-.09Zm.39,1.45-.09-.14h-.26l0,.27,0,.08.26,0,.09,0Zm-.13,5.65-.09-.22h-.17l0,.22Zm0-1.71h-.22V503l.18.09L345,503Zm0-8.06h-.18v.22l.22-.05Zm0,1.71v-.22h-.22v.22Zm0,9.42v-.22h-.22v.26Zm0,2.41h-.17l-.05.22.09.08.18-.08Zm.62-18.93h-.31l0,.35.35-.05Zm.48-.22.13-.35-.48-.31-.22-.31-.22.18.18.3.13.14.09.13.13.22Zm-.44,18.8,0-.27-.09-.08h-.22l-.09.08.09.22Zm0-9.86-.09-.09-.27.09.09.3h.27l0-.08Zm-.18,1.44-.09,0,0,.09,0,.13Zm.13-5.34-.13-.09-.09.17.18.09Zm0,1.31h-.17l-.05.18.05.08h.22Zm0,1.36-.13,0v.09h.13ZM345.57,509l0,.13.13.05,0-.18Zm.44-14.2,0,.14.18-.05-.09-.09Zm.4,13.5-.27-.09h-.09l0,.27.22.08Zm-.18,1.49v-.17l-.13-.09-.05.17Zm.22-19.54v-.35l-.35,0v.35Zm-.18-2.06v-.09h-.08l-.05.09Zm.49,1.49v-.22l-.18-.05,0,.22Zm1,20-.09-.13-.26-.26-.09-.13-.17-.18-.18-.09-.13.14,0,.13.13.13.13.09.61.61.13-.13Zm-.74-20.9,0-.18h-.22l0,.18Zm1.4,20.16-.09-.13-.17-.18-.09-.13-.13-.09-.09-.08h-.27l-.08.21.22.09.13.09.09.09,0,.13.09.13.13.22.26-.09Zm.52-.7-.08.09,0,.26h.22l0-.22,0-.09Zm0,1.36v.17h.22l0-.17Zm.92-.71h-.26l0,.27.27,0,.08-.09Zm.44-.7-.05.14.09.21.09.09.13.05.09.08.22.05-.09-.22,0-.09-.05-.13-.17-.18Zm.7-.57,0,.14h.18l-.05-.22Zm1.31-1.35-.13.17-.35.35-.13.09-.13.17.22.14.22-.14.44-.43.13-.22-.05-.09Zm1.45-2.59h.13l0-.13-.09,0Zm12.18,6.4-.43-.22-.49-.4-.3-.39-.27-.44-.26-.52,0-.62-.22-.48-.13-.57,0-.61,0-.62v-.52l.08-1.14,0-.62.18-1.13v-.57l.08-.53.05-.66.08-.57.14-.52v-.88l.13-.88-.13-.57-.35-.52-.4-.4-.79-.13-1,.05-.48.17-.57.18-.44.35-.53.35-.79.79-.44.48-.3.44-.31.52-.44,1.06-.35.48-.35,1.14,0,.57-.26.87-.09.79,0,.61-.08.57,0,.49v.61l0,.48v.57l.08.62,0,.48-.09.61v.79l-.39.66-.57.08-.57.05-.48-.09-.49-.66-.13-.79.05-.56-.09-.53,0-.57.09-.61,0-.53,0-.61v-.57l0-.62.08-.61.14-1.67v-.57l0-.61.09-.52v-.62l0-.61,0-.57.17-1.1,0-.52v-.62l.13-.61v-.57l0-.53.27-.83.48-.61.57-.09h.52l.49.13.39.66v1.8l-.13.61v.48l0,.31.62-.61.3-.53.31-.44.39-.39.36-.4.48-.3.48-.35.92-.58.53-.17.52-.22.57,0h.79L364,493l.62.18.57.22.43.26.49.35.26.48.39.49.14.56.08.62v.52l.09.62-.09.92-.13.79v.61l-.26,1.1-.09,1.18-.13.53.09.61-.13.57-.05.61-.09.57.14.53.08.57,0,.52.17.62.4.43.74.18h.71l.43-.26.53-.27.35-.43,1.1-1.28.35-.48.26-.44.22-.48.31-.48.26-.48.35-.57.17-.53.53-.7.57-.35.48.22.4.31.17.74-.31.83-.17.57-.26.49-.27.52-.52,1-.4.44-.26.52-.31.44-.39.44-.26.52-.35.4-.49.39-.35.4-.52.35-.35.26-.57.31-1.45.35h-1.27Zm-11.61-7.32v.17l.26.14.05-.27Zm.31,2.8h-.27v.18l.27,0Zm.17-8.28h-.26l0,.31h.26Zm-.13,6.93-.17-.05v.26l.17.05Zm-.13,2.67,0,.17h.17v-.17Zm.17,1.4-.17,0,0,.22.17,0Zm0-12.27-.17,0,0,.18h.18Zm-.13,2.72,0,.17h.09l.08-.13Zm.18,2.93v-.26l-.22,0v.27Zm.66-5-.31,0-.09.35h.35Zm0,1.76v-.27L355,498l-.05.3Zm.39,2.1.35-.22,0-.26h-.4l-.13.31-.09.17-.26.13-.17.13-.05.31.4,0,.13-.18.09-.26Zm-.39,1.62H355l-.05.31.4,0Zm-.35,1.54.21,0,.05-.22-.26,0Zm.35,2.54H355v.35h.35Zm-.09-10.87H355v.22l.26-.05Zm.09,4H355v.39h.35Zm-.05,5.61h-.22v.17l.22.05Zm-.09,2.71-.13.05.05.09.13,0Zm.71-13h-.18l-.09.31h.22Zm.13,1.36-.35-.05-.05.27.31,0Zm0,1.36-.4,0,.09.31h.31Zm0,1.75,0-.4-.43,0V499Zm-.31,6.44-.08,0v.14h.08Zm0-4.08v.27h.31v-.27Zm1-3.41-.36-.09v.35l.14.13h.3Zm0,1.27h-.36v.39h.31Zm.52-.35v-.22l-.26-.05V499Zm.53-.92v-.27h-.27V498Zm3.68-3.42h-.09l-.09.17.18.09Zm.52-.75,0,.22h.22v-.22Zm.62.79.22.35.17.13.22.18.09-.09-.22-.26-.09-.09-.13-.35Zm.83-.61h-.22v.22l.22,0Zm.74.52h-.35l.09.36.35,0Zm.66,1.1.05-.35-.31-.09-.05.35Zm.05-1.71h-.27v.26h.27Zm-.22,6.84-.05.17.27,0v-.18Zm.17,1.36h-.22v.17h.22Zm-.22,1.35v.18l.13,0v-.14Zm0,1.58h.18v-.17h-.18Zm.22,1.14h-.17v.22h.22Zm.18,1.62-.09-.17-.26-.05,0,.27.18.08.22.27.13.17.26.05,0-.31-.18,0Zm.52-12.88v-.4h-.35l0,.36Zm0,1h-.31v.3l.31,0Zm0,2.85-.17-.09-.13.17.17.09Zm-.08-1.41h-.14l0,.22.13,0Zm.08,4-.22,0v.22l.18,0Zm-.22,4.12,0,.14h.13v-.14Zm.18-5.39-.13,0v.13l.09.05Zm.09,4.25v-.26h-.22v.31Zm.61-7.71-.22,0v.22l.22,0Zm0,2.59-.22,0v.31l.22-.05Zm-.17-1.23v.18l.17,0v-.18Zm.17,9.6H366l0,.13h.17Zm0-12.27h-.09l0,.13.13,0ZM366,509v.26h.13l0-.22Zm.83-.61-.13-.14-.13.18.17.09Zm.05,1.4-.27-.05,0,.18.22,0Zm.65-.53,0-.35h-.26v.35Zm.57.48H368v.13h.13Zm.75-.74h-.35l0,.35.35,0Zm8.63,1.58-.53-.27-.92-.74-.39-.48-.18-.49v-.48l.05-.39.17-.44.4-.48.52-.27.57.27.4.48.31.39.35.35.83.18.74,0,.57-.22.4-.52.26-.7.09-.53.3-.52.53-.62,0-.66-.13-.56,0-.62-.26-.48-.22-.53-.31-.52-.57-1.05-1.05-1.54-.22-.48-.44-.57-.22-.52-.35-.31-.48.09-.48.39-1.1,1.88-.17.49-.27.57-.26.52-.31.48-.17.44-.53.7-.57.35-.48-.17-.44-.35-.08-.79.21-.75.31-.52.18-.48.3-.57.18-.49.35-.52.22-.48.35-.53.39-.44.27-.52.39-.4.31-.44.44-.35.39-.7.35-.79.09-.57.17-.57.35-.43.4-.49.52-.3.57-.09h.53l.61.13.4.4.22.43.13.53-.09.61-.17.57-.31.48-.31.84.09.79.44,1,.61.7.48.66.53,1,.35.53.44,1,.31.53.21.48.18.57.31.48.08.53,0,.92.17.83-.13.57.18.52.52.05.48-.18.49-.35.39-.44.26-.39.4-.48.26-.53.4-.52.3-.49.35-.57.7-1.31.57-.44.62.22.39.39.05.75L391,503l-.3.48-.35.53-.22.43-.31.49-.31.52-.17.4-.7.92-.44.44-.88.74-.44.31-.35.3-.57.27-.43.13-2,.39-.61.31-.57.31-.35.26-.88.35-1.4.26h-.79l-.79-.08Zm-1.18-2.19,0-.14-.13,0,0,.13Zm.57-11.71v.27l.22,0,0-.22Zm.22,12.14H377V509l.22,0Zm.61-12.84-.26.05,0,.26.26,0Zm0,13.54-.22,0,0,.22.22.09Zm-.22-14.68.05.14.13-.05,0-.13Zm1,.88,0-.31-.3.05.09.3Zm-.31-1.66,0,.35h.3l0-.35Zm0,2.67v.22h.21v-.22Zm.21,12.22-.17-.08,0,.22h.17Zm.71-15.51-.36,0,0,.39.4.05Zm-.05,2.59h-.31l.09.35.31-.05Zm.09-1v-.35l-.35,0,0,.35Zm-.13,14.68-.05-.13H379v.13Zm.74-15.29V494l-.39.09v.35Zm.35-2.15-.17.26-.13.13-.4.13.18.35.39-.21.13-.22.09-.18.09-.26Zm-.35,3.11-.35,0v.4l.4-.05Zm0,1.4-.3,0,0,.35h.31Zm-.22,1.32v.17l.14.05,0-.18Zm.31,11-.09-.18h-.22l.05.22.17,0,.22.14.09.3.31.09-.09-.31-.26-.13Zm.22-15.69v.26l.26,0v-.26Zm.26,1.44-.22,0v.18l.18,0Zm-.13,2.63,0,.18.13,0,.09-.13Zm.22,1.54,0-.22-.21-.05-.05.22Zm.7,10.12,0-.26-.22,0,0,.22Zm-.22-9.73v.18l.18,0v-.18Zm.79,10.17-.13-.09-.13.13.17.13Zm-.09-9.47h-.13l.05.22.17,0Zm.14,8-.27.09.05.26.26,0ZM381.6,507l.22,0v-.22l-.22,0Zm.26-5.57-.18,0,0,.18.18,0Zm.66,4.69h-.31l0,.27.3,0Zm-.31,1.23v.35l.39,0,0-.36Zm.35,1.71,0-.31h-.31l0,.31ZM382.3,502v.18h.17l0-.18Zm.52,6.14.05.22h.26l0-.26Zm.4-2.5-.09-.26h-.26l0,.31Zm-.09-2.89-.22,0V503l.22,0Zm0,1.27-.26,0v.27h.26Zm.05,2.76H383V507h.26Zm.39-.74,0,.26.26,0,.05-.26Zm.27,1.31h-.31l0,.26h.27Zm-.09-2.54h-.18V505h.18Zm-.13-1.18h.17v-.14l-.17,0Zm.83,3.11-.31,0,.05.31.35-.05Zm-.05,1.62.05-.18-.22-.08,0,.22Zm.44-1v.27l.35,0-.08-.31Zm1,.62h-.27v.26l.22,0Zm.52-.57,0,.13.13,0v-.13ZM432,500.8l.61.22.35.35,0,.74-.13.79-.57,1-.13.48-.35.57-.17.48-.4.49-.26.39-.26.48-.35.53-.4.39-1,1.18-.53.36-1,.61-.44.22-.66.17-.74.05-.83-.05-.49-.08-.61-.18-.44-.18-.44-.3-.26-.35-.39-.48-.27-.4-.26-.44-.13-.57-.13-.52-.09-.53-.26-1.14v-.61l-.05-.57.09-1.14,0-.57.09-.61V501l-.09-.52.09-.62,0-.61.13-.57,0-.57,0-.61.13-.62v-.57l.05-.65,0-.53-.18-.53-.61-.17-.53.13-1.18.22-.52.18-1.1.26-1.71.52-.52.14-.53.17-.61.22-.49.22-.65.44-.4.7-.09.61-.08.57-.27,1.1L411.7,501l-.17.52-.09.57-.18.53-.22.52-.3.57-.35,1.06-.35.48-.79,1.53-.31.48-.26.53-.83.83-.44.35-.48.4-.88.57-.53.13-.52.17h-.83l-1-.08-.44-.18-.48-.22-.48-.44-.35-.35-.35-.48-.31-.48-.17-.53v-.57l-.14-.57v-1.09l.09-.57.18-.57.08-.57.31-.62.18-.48.26-.52.61-1,.44-.66.66-.57.83-.83.4-.31.43-.39,1.89-1.23,1.05-.52,1-.62.53-.22.57-.48.39-.7.09-.61.05-.53.22-1.1.08-.57,0-.52.13-.57,0-.57,0-.48.08-.57.14-1.76-.05-1.09.05-.57-.09-.53-.09-.57-.09-.52,0-.57-.26-.57-.53-.53-.74-.26-.53,0-.44.22-.92.53-.79.44-.79.13-.43-.31-.22-.52.08-.75.84-.88.65-.48.57-.35.49-.26,1.09-.35,1.19-.09.61.09.52.22.75.39.53.57.3.44.62,1.62.08.44.13.61.14,1.1v1.14l.08.57V487l0,.57,0,.57-.08.57-.05.52v.57l0,.57-.18.57v.57l-.13.57-.09.57,0,.57.13.39.53.14.61-.22.53-.14.44-.17.61-.13,1.05-.31.53-.13.52-.17,1.14-.27.57-.09.48-.17.62-.13.57-.35.3-.62v-.61l.13-1.67.09-.65.18-1.67v-.61l.17-1.14,0-.61.13-.53,0-1.75.13-.62.26-.83.44-.7.44-.18h.66l.57.22.35.57.08,1.32,0,.48v.61l0,1.1-.14.61-.13,1.1.09.65-.13.58v.52l-.13.57-.05.53.09.61-.17.53v.57l-.09.57.26.52.57.22.66-.09.48,0,.57-.09h.92l.61.31.14.52v.53l-.18.57-.7.31-.88.17h-.57l-.61.13h-.61l-.75.4-.35.61v.53l-.09.61,0,.53v1.09l0,.61-.13.53,0,1.1,0,.61v.57l-.13.48.09.62-.18,1.13.09.53.05.61,0,.57,0,.53.08.53.27.57.22.52.35.48.39.27.83.13.7-.13.62-.27.79-.7.74-.83.4-.53.26-.48.35-.57.35-.52.22-.53.35-.48L431,502l.44-.7Zm-30.77,6.26.22-.08,0-.27-.22.09Zm.62-2.32-.22-.26-.09-.13h-.22l.13.26.22.22.09.31.26,0,.09-.26Zm-.44,1,0-.13h-.09l0,.09Zm.44-2.1-.05.17.18.09.09-.22Zm.92,4.73-.05-.22-.09-.18-.13-.13-.17-.13-.13-.13-.4.09.27.35.48.48Zm-.84-1.89h.18v-.17H402Zm.62-2.06.13.05,0-.13-.09-.05Zm.17,2.59h-.17v.18h.17Zm-.13-5.26h.13v-.13l-.09,0Zm6.27-3.11-1.1.53-.39.35-.57.3-1.27,1.1-.79.88-.92,1.35-.31.53-.22.48-.08.62-.14.48v1.18l.27.53.26.35.83.22.92-.27.57-.43.48-.4.31-.52.31-.49.22-.44.22-.57.21-.52.27-.48.48-1.14.17-.53.18-.48.09-.53.26-1.14.18-.57-.09-.43Zm-5.7,10.52h.35l.05-.31-.4,0Zm.22-8,0-.13-.13,0,0,.13Zm0,1.27.13-.13-.17-.09-.09.09Zm0,5.17h-.13v.14h.13Zm.66,2.06-.05-.17h-.17v.22Zm-.09-7.88.09-.14-.09-.08-.09.08Zm.13,6.66,0-.22-.18,0,.05.22Zm.05-8v-.18l-.22.05v.13Zm.43.61h.09v-.13h-.09Zm.66-1.93h.22v-.22l-.18,0Zm.31,9.12h-.31l0,.26h.27Zm.57-.57H406l0,.17.17,0Zm-.05,1.44V509H406v.13Zm.53-9.94h.22V499l-.18,0Zm0,9.33.27,0v-.22h-.27Zm.57-10.12.27,0,0-.22-.26,0Zm.31,9.16-.31,0,0,.26.26,0Zm0-1.06v-.13h-.13v.13Zm.44-24.8h.17v-.13h-.22Zm.22,16v-.26h-.27v.26Zm-.09,9.33-.13,0-.05.13.14.05Zm-.09-1.13.22-.05v-.22H408Zm.7-2.28-.13,0,0,.18.13,0Zm.13-22.66v-.22h-.26l0,.26Zm0,17.27-.18-.05,0,.18.22,0Zm-.09,8.23v-.17l-.13,0v.17Zm-.09-9.42h.22v-.22h-.22Zm0,8.15h.18v-.17h-.18Zm.88-7.4v-.31h-.26l0,.31Zm-.09,4v-.18h-.17l0,.18Zm.84-6-.05-.31-.35.14-.3.3-.14.18-.08.35.17.13.22.31.22.35.39-.09.05-.18-.13-.3-.31-.26-.13-.09v-.18L410,496Zm-.75,7.32v-.18l-.17,0v.22Zm.05,1.36v-.22h-.22v.22Zm0-24.24h-.18v.18h.13Zm.52,20.65-.26,0,0,.26.27,0Zm.13-2.59h-.3l-.05.26h.31ZM410.13,481l-.05-.17-.13,0v.18ZM410,499.79h.18l0-.18-.22,0Zm.13,3.86-.13,0,0,.13.14,0Zm.13-1.14v-.27H410v.27Zm.66-4.74v-.39h-.35v.44Zm-.09,4.08.05-.26-.27-.09,0,.31Zm.26-5.7.22-.13.22,0,.18-.31-.09-.31-.35.05-.13.39-.13.26-.35.05-.05.35h.4Zm-.48,3,.35,0v-.31h-.35Zm.27,1.4,0-.21-.26-.05-.05.22Zm-.05-20.37-.17.08v.18l.17,0Zm.05,1.53v-.17h-.22v.17Zm0,13.45v-.08l-.09-.05,0,.13Zm.74-.65.05-.4-.4,0,0,.35Zm-.35,3.9.57.44,0-.05-.13-.31-.22-.26Zm.31-17.53h-.27l.05.22h.22Zm0,1.49v-.26h-.31l.05.3Zm.05,14.81-.05-.35h-.31v.35Zm-.05,2.59v-.27h-.31v.27Zm-.26-8h.26l.05-.31-.31,0Zm.22,1.1h-.22V493h.26Zm0-2.5v-.13l-.17,0,.08.13Zm1,3.68-.14-.13,0-.22-.22-.31-.31.22.18.35.17.09.27.17.13.31.39-.13-.08-.39Zm-.31-1.58,0-.31-.35-.08,0,.35Zm-.35,3.9h.3v-.22h-.26Zm.7-9-.13-.17-.18-.35h-.22l-.13.22.31.26.22.22,0,.17.31.09.09-.13.17-.18.22-.26-.13-.17-.4.26Zm-.31,2.19-.3-.08-.05.3.31.09Zm0,1.32-.35,0,.05.31.26,0Zm-.3,4.34h.35l-.09-.35-.31,0Zm.21-13.46v-.17l-.21,0v.17Zm-.17,1.32h.26v-.31H412Zm.22,1.31v-.26l-.22,0,0,.26Zm-.26,4,.35.09v-.31l-.27-.08Zm.13,9.38,0-.13-.13,0,0,.13Zm-.05-12h.31l0-.26H412Zm.88.79-.09-.31-.3.05,0,.26Zm0,2.59-.05-.35h-.3l0,.35Zm.26,1.62-.09-.22-.09-.13-.26-.22-.17.26.26.22.13.09Zm-.61,2.41h.3v-.31h-.3Zm.35-9.34v-.26l-.31-.09v.27Zm-.05,1h-.26v.26h.26Zm0,7v-.26h-.22v.22Zm.09,3.68h-.26l-.05.31h.31Zm.66-.35v-.3l-.27,0,.05.31Zm.61.27h-.31l.05.3.26.05Zm0-1v-.17l-.26,0,0,.22Zm.66.66,0-.26-.22,0-.09.22Zm1.93-.7.08-.13-.13-.09-.09.18Zm1.44,0,0-.14-.13.09,0,.09Zm.66-.79h-.22v.22l.22,0Zm1.36.22,0-.27-.3,0-.05.26Zm.44-.88v.26h.22v-.26Zm.87.57-.26-.05v.31l.26.05Zm0-1.23h-.17v.18h.22Zm.7.92v-.35l-.39.05,0,.39Zm-.08,12V505l-.22,0,0,.22Zm.26-11.44-.09.22-.26.09-.13.13.08.26h.31l0-.13V494l.22-.05.21-.09.09-.3-.35-.05Zm-.13,6.09-.05-.3H422l0,.3Zm-.09,1.41,0-.31-.26,0,0,.26Zm0,2.54v-.27H422v.31Zm0-6.8H422v.22h.22Zm.13,1.36-.27-.08,0,.21.26.09Zm-.05,4.08v-.22H422v.22Zm0-10.74.05-.26-.27,0v.27Zm-.13,4,.09,0,0-.13-.13,0Zm.83-4.91-.39,0,0,.44.39,0Zm-.43,9.73.35,0,0-.3-.35-.05Zm.09-5.35.3,0v-.31l-.35,0Zm.26,2.68v-.31h-.31v.31Zm0,1.36-.05-.27h-.26l.05.27Zm0,6.35h-.31v.31h.31Zm0,1.58v-.31h-.3l-.05.31Zm-.09-14.68v-.22h-.21v.22Zm.09,3.72-.3.09v.26l.3-.08Zm-.3,5.7.3,0v-.27l-.3,0Zm.34,1-.34-.09v.35l.3.09Zm-.08-13.11v-.26l-.22,0v.18Zm0,14.68v-.21l-.26,0v.26Zm.31-15.77-.18-.18v-.22l-.3-.08-.05.3.13.09.31.31.22.35h.26l.05-.31-.27-.22Zm-.31,19.63-.17,0-.05.13.18.09Zm-.13-21.17.17.05V487l-.17,0Zm.7-3.72h-.26v.22h.31Zm.05,4.43.08-.27-.26,0-.13.31Zm-.31,2.63.35,0v-.31h-.26Zm.09,2.84.3-.08v-.4l-.39.09Zm.3.84-.3-.05v.31h.26Zm-.08,1.31-.22,0,0,.27.18-.05Zm-.05,1.32-.17,0,0,.22h.18Zm0,1.4-.17,0v.26l.22,0Zm0,1.62v-.18h-.13l0,.18Zm0,1.27,0-.17h-.13l0,.21Zm0,4-.13-.05,0,.14.08,0Zm.09-20v-.26l-.18,0,0,.26Zm0,1.32,0-.35h-.22l0,.31Zm0,5.35v-.27h-.18v.22Zm-.18,14.68.22.08,0-.26-.22,0Zm.26,2.41h-.22l0,.26h.22Zm0-26.43v-.17h-.18v.22Zm0,25.42v-.26h-.22v.22Zm.09-26.73v-.18l-.22,0,.05.17Zm.53,2-.05-.31-.26.05,0,.3Zm-.05,7.71h-.26V491l.31.05Zm.05-9.07v-.22H424v.22Zm.08,2.76v-.31l-.3,0,0,.35Zm0,1.36.22.22-.08-.39-.14-.31-.35.09v.26Zm0,1-.31.05.09.3.26,0Zm0,1.41-.26-.05,0,.31.27,0Zm0,4.34v-.27l-.3-.09,0,.31Zm-.17,1.22v-.22H424v.22Zm.17,14.51-.35-.05v.31l.31,0Zm-.26-18.72,0,.22.22.05,0-.22Zm1,3.73.08-.09,0-.17-.22-.31-.26.22.22.31Zm-.44,15.91h.3l.05-.31h-.31Zm.26-25.64h-.22v.22h.22Zm0,8-.22,0,0,.26h.22Zm-.13-6.53,0-.09-.05.05v.08Zm.79,7.41,0-.27-.26,0,0,.31Zm0,16,0-.17h-.17v.17Zm.44.75.26-.05,0-.26-.26,0Zm.74-.92-.17,0,0,.13.13,0Zm.18-15.82v-.18h-.18v.18Zm.61,16.74.05-.13-.13-.05-.05.13Zm10.13,1.36-.49-.09-.7-.18-.44-.13-.48-.22-.61-.35-.88-.61-.44-.4-.39-.43-.44-.44-.26-.44-.26-.53-.13-.48-.22-.57-.14-.57-.17-.52-.13-.62-.09-.52-.09-.92v-.79l.09-.57,0-.62.13-.56.18-.62.13-.52.22-.53.13-.53.31-.52.66-1,.26-.44.35-.48.44-.35.39-.44.92-.7,1.36-.61.75-.27,2.36-.13.57.05,1.14.3,1,.57.49.44.3.35.4.44.26.52.22.57,0,.53.13.66-.08.83-.14.88-.26.48L444,500l-.35.48-.35.44-.35.48-.35.4-.48.3-.57.35-1,.48-1.14.31-.52.05-.62.08-1.09-.08-.57-.09-.92-.27-.53-.17-.79-.09-.13.44.13.53v.61l.22.57.27.48.21.57.27.44.44.44.52.44.35.3,1.1.35,1.44.18,1.41-.09.57-.09,1.09-.39.57-.22,1.45-.79.39-.39.4-.35.83-.88.66-.92.87-1.45.27-.44.52-.7.62-.48.52.18.44.39,0,.66-.22.83-.22.48-.17.53-.26.52-.44.49-.31.48-.22.48-.35.48-.44.44-.35.44-.35.39-.44.4-1.4,1.09-1.36.75-.65.17-.53.18-.57.13-.53.13-2,.09h-.92Zm-5.74-8.33-.05.13.13.09.05-.18Zm.17,1.58v-.22h-.22v.22Zm.05-2.94-.22.05v.26l.26,0Zm.52-.31.09-.3h-.31v.3Zm.09,1h-.27l0,.26.31.05Zm-.27,1.36,0,.3.31,0,0-.31Zm.22,1.4-.13-.09-.09.09.14.13Zm.09,1.53.05-.3-.31-.05,0,.31Zm0-6.92h-.18V499l.13,0Zm.3,4.64,0,.31.35.05v-.4Zm.4,1.45h-.31l-.09.26.31,0Zm0-2.5,0-.26h-.31l.05.31Zm-.26-2.58.31-.05,0-.35-.3,0Zm.22,6.61,0-.3-.26-.05,0,.27Zm0-8.28h-.22v.22h.26Zm0,2.68h-.22v.26l.26,0ZM434,499v-.26l-.31,0,.05.3Zm.17,2.68-.08-.31h-.31l.09.4Zm-.13-3.9,0-.26h-.18v.26Zm-.22,2.36v.27h.27l-.05-.27Zm.22-3.94h-.13l0,.13.13.05Zm-.17,9.42v.13H434v-.13Zm.22,1.58,0-.26-.22-.05,0,.27Zm.7-6.09v-.31l-.35.05v.3Zm-.09,5.13h-.17v.21l.21,0Zm.09,1.49v-.22l-.26,0v.22Zm.87-7.1.57.13.92.17.84,0,.48,0,.79-.17.83-.31.48-.39.44-.35.61-1,.18-1.67-.22-.57-.31-.48-.43-.35-.4-.26-.66-.13-.83,0-.88.17-.61.18-.39.26-.4.31-.74.66-.48.7-.36.52-.26.53-.13.53v.7l.39.57Zm-.52,6.53.17-.05v-.22l-.17.05Zm0-5.75v.36h.27l0-.31Zm.31,6.71h-.31v.31l.27,0Zm.48-.44,0-.09-.05.09.09,0Zm-.09,1.18v.18H436v-.18Zm.79-.65h-.22v.17h.18Zm0,1.36-.09.17h.22v-.17Zm.52-15.52v.18l.14,0,0-.17Zm.31,14.86-.26-.05,0,.31.27.05Zm0-6.62h-.18l.09.13.09,0Zm.65,7.54.05-.22-.22,0,0,.21Zm.44-15.73,0,.17h.22v-.13Zm.18,8.15h-.18l0,.13.22,0Zm.09,6.66-.22,0,0,.22h.22Zm1.31-6.75-.18,0,0,.17.18.05Zm0-8.11H440l-.05.22h.22Zm-.08,14.81-.14.05.05.13.13,0Zm.57-7.27v.18h.17v-.18Zm.17,8.11v-.09l-.09,0,0,.13Zm.62-15.65-.27.05.05.17h.22ZM441.2,509l-.05.22.22.05.05-.27Zm.08-8,.18,0,0-.13-.17,0Zm.88-6.27h-.22l0,.22.22,0Zm.57.74h-.26v.27h.26Zm0,1.36h-.18l0,.22h.22Zm0,2.72h-.26v.26h.22Zm.05-1.31h-.18v.17h.13Zm0,10.86V509l-.18-.05v.22Zm.35-.78.09.17h.21l0-.22Zm.35-12.19h-.31l.09.27h.22Zm0,2.76-.17,0,0,.17h.17Zm-.17-1.35v.17h.17v-.22Zm.74-.49v-.17h-.17v.17Zm.14,10.65,0-.22H444l0,.22Zm1.27-.13-.13,0-.05.14.18,0Zm.48-.61v.13l.17-.05,0-.13Zm.79-.84h-.13v.14l.13,0Zm.87-2-.17.05v.17l.17,0Zm18.59-3.11.39.39.09.71-.26.83-.27.48-.44,1-.3.48-.35.53-.62,1-.61.92-.39.44-.31.39-.48.44-.31.35-.53.35-1,.53-.57.22-1.14.21-1.62.09-1.67-.3-.92-.62-.44-.35-.44-.39-.35-.4-.17-.57-.22-.52-.31-.48-.09-.53,0-.57-.22-.88v-1.4l.17-.61.09-.53.09-.57.13-.61.22-.53.13-.57.18-.52L454,499l.13-.57.22-.57.57-1,.17-.57v-.44l-.78-.39-.71-.22-.61,0-.48.44-.13.48-.83,2.28-.09.48-.27.57-.35,1.1-.35.57-.13.52-.26.53-.53.61-.57.31-.52-.13-.4-.44,0-.7.18-.7.26-.57.3-.44.18-.48.13-.53.26-.48.22-.53.13-.56.18-.49.22-.57.17-.61.22-.53.05-.57.22-.52v-1.71l-.09-.53.13-.57.39-.44.49-.3.52-.05.53.18.35.39.22.57.44.75.48.66.44.13.61.08h.57l.53-.13.83-.17.83,0,.44.26.31.58.13.52-.09.57-.35.83-.75,1.14-.3.53-.35.48-.4,1.05-.44,1.05-.13.57-.09.53-.26,1.1,0,.56v.53l-.13.61.17,1.67.7,1.4.4.35.52.22.66.13.7,0,.88-.09.52-.18.44-.22.4-.3.52-.35,1.19-1.27.52-.92.27-.44.3-.53.22-.52.31-.57.26-.49.44-.74.7-.44Zm-14.73-6.57h-.26l0,.26.22,0Zm.05-1.36h-.22v.26l.22,0Zm.26.57V494h.3l0-.26Zm.22,1.49-.18-.05,0,.14.17.08Zm.17-2.54-.17-.22-.09.26.17.09Zm.62.43-.35,0v.26l.35.05Zm.65.75-.26-.09-.09.31.35,0Zm.05,9.42h-.18v.13h.18Zm.35,2,0,.27.18-.05v-.22Zm.22-10.51v-.22h-.18v.17Zm0,11.92-.18-.05v.22l.22.05Zm0-2.5V504l-.09,0,0,.17Zm0-2.85H454v.17h.13Zm-.13,1.36,0,.13.09,0,0-.14Zm.74-.53v-.26h-.21v.26Zm0,5.09h-.21v.21h.26Zm0-3.77.05-.18h-.22v.18Zm-.17,1.09,0,.22.18.05,0-.22Zm1-10-.18-.22L455,494l-.17-.09-.22-.13-.09.13.31.3.22.35.31.18Zm-1,11.4v.13h.22v-.18Zm.92-8.68-.22-.05,0,.18h.22Zm-.08,1.36-.09-.09-.09.09.09.08Zm-.18,9.59.13.05,0-.13h-.14Zm.26-8.28-.17,0-.05.09.18.13Zm.4-5.83h.22l-.05-.17h-.22Zm.26,2.41-.26,0-.05.22.27,0Zm0-1.44-.26,0,0,.26.22,0Zm-.26,2.76V498h.17v-.17Zm.74-3.38,0,.18.17.09.05-.22Zm0,1.36v.31l.26-.09,0-.26Zm1-.35,0-.39h-.35l0,.39Zm-.08,13.06-.18,0v.22h.18Zm0-14.55,0-.09-.09,0-.05.13Zm.44.53v.22l.22,0,0-.26Zm0,14.81v.22h.18v-.22Zm1.54,0h-.18v.22h.18Zm11.79,1.23-.49-.09-.7-.18-.44-.13-.48-.22-.61-.35-.88-.61-.44-.4-.39-.43-.44-.44-.26-.44-.26-.53-.14-.48-.22-.57-.13-.57-.17-.52L465,504l-.09-.52-.09-.92v-.79l.09-.57,0-.62.13-.56.18-.62.13-.52.22-.53.13-.53.31-.52.66-1,.26-.44.35-.48.44-.35.39-.44.92-.7,1.36-.61.75-.27,2.36-.13.57.05,1.14.3,1,.57.49.44.3.35.4.44.26.52.22.57,0,.53.13.66-.08.83L478,499l-.26.48-.13.57-.35.48-.35.44-.35.48-.35.4-.48.3-.57.35-1,.48-1.14.31-.52.05-.62.08-1.09-.08-.57-.09-.92-.27-.53-.17-.79-.09-.13.44.13.53v.61l.22.57.27.48.21.57.27.44.44.44.52.44.35.3,1.1.35,1.44.18,1.41-.09.57-.09,1.09-.39.57-.22,1.45-.79.39-.39.4-.35.83-.88.66-.92.87-1.45.26-.44.53-.7.61-.48.53.18.44.39,0,.66-.22.83-.22.48-.17.53-.26.52-.44.49-.31.48-.22.48-.35.48-.44.44-.35.44-.35.39-.44.4-1.4,1.09-1.36.75-.66.17-.52.18-.57.13-.53.13-2,.09h-.92Zm-5.75-8.33,0,.13.13.09.05-.18Zm.18,1.58v-.22h-.22v.22Zm0-2.94-.22.05v.26l.27,0Zm.53-.31.09-.3H466v.3Zm.09,1H466l0,.26.31.05Zm-.27,1.36,0,.3.31,0,0-.31Zm.22,1.4-.13-.09-.09.09.14.13Zm.09,1.53,0-.3-.3-.05,0,.31Zm0-6.92h-.18V499l.13,0Zm.3,4.64.05.31.35.05v-.4ZM467,505h-.31l-.09.26.31,0Zm0-2.5,0-.26h-.31l.05.31Zm-.26-2.58.31-.05-.05-.35-.3,0Zm.22,6.61,0-.3-.26-.05,0,.27Zm0-8.28h-.22v.22h.26Zm0,2.68h-.22v.26l.26,0Zm.57-1.85v-.26l-.31,0,.05.3Zm.17,2.68-.08-.31h-.31l.09.4Zm-.13-3.9,0-.26h-.18v.26Zm-.22,2.36v.27h.27l-.05-.27Zm.22-3.94h-.13l0,.13.13.05Zm-.17,9.42v.13h.13v-.13Zm.22,1.58,0-.26-.22-.05,0,.27Zm.7-6.09v-.31l-.35.05v.3Zm-.09,5.13h-.18v.21l.22,0Zm.09,1.49v-.22l-.27,0v.22Zm.87-7.1.57.13.92.17.84,0,.48,0,.79-.17.83-.31.48-.39.44-.35.61-1,.18-1.67-.22-.57-.31-.48-.43-.35-.4-.26-.66-.13-.83,0-.88.17-.61.18-.39.26-.4.31-.74.66-.49.7-.35.52-.26.53-.13.53v.7l.39.57Zm-.52,6.53.17-.05v-.22l-.17.05Zm0-5.75v.36H469l.05-.31Zm.31,6.71h-.31v.31l.26,0Zm.48-.44,0-.09-.05.09.09,0Zm-.09,1.18v.18h.13v-.18Zm.79-.65H470v.17h.18Zm0,1.36-.09.17h.22v-.17Zm.52-15.52v.18l.14,0,0-.17ZM471,509l-.26-.05,0,.31.27.05Zm0-6.62h-.18l.09.13.09,0Zm.65,7.54.05-.22-.22,0-.05.21Zm.44-15.73,0,.17h.22v-.13Zm.18,8.15h-.18l0,.13.22,0Zm.09,6.66-.22,0,0,.22h.22Zm1.31-6.75-.18,0,0,.17.18.05Zm0-8.11h-.17l-.05.22h.22Zm-.08,14.81-.14.05.05.13.13,0Zm.57-7.27v.18h.17v-.18Zm.17,8.11v-.09l-.09,0,0,.13Zm.61-15.65-.26.05,0,.17H475Zm-.21,14.9,0,.22.22.05,0-.27Zm.08-8,.18,0,0-.13-.17,0Zm.88-6.27h-.22l0,.22.22,0Zm.57.74H476v.27h.26Zm0,1.36h-.18l0,.22h.22Zm0,2.72h-.26v.26h.22Zm.05-1.31h-.18v.17h.13Zm0,10.86V509l-.18-.05v.22Zm.35-.78.09.17H477l0-.22Zm.35-12.19h-.31l.09.27h.22Zm0,2.76-.17,0,0,.17H477Zm-.17-1.35v.17H477v-.22Zm.74-.49v-.17h-.17v.17Zm.14,10.65,0-.22h-.26l0,.22Zm1.27-.13-.14,0,0,.14.18,0Zm.48-.61v.13l.17-.05,0-.13Zm.79-.84h-.13v.14l.13,0Zm.87-2-.17.05v.17l.17,0Z"/></svg>